<?xml version="1.0" encoding="utf-8"?>
<!-- Generator: Adobe Illustrator 24.2.3, SVG Export Plug-In . SVG Version: 6.00 Build 0)  -->
<svg version="1.0" id="Livello_1" xmlns="http://www.w3.org/2000/svg" xmlns:xlink="http://www.w3.org/1999/xlink" x="0px" y="0px"
	 viewBox="0 0 319.55 481.06" style="enable-background:new 0 0 319.55 481.06;" xml:space="preserve">
<style type="text/css">
	.st0{fill:#129392;}
	.st1{fill:none;stroke:#FFFFFF;stroke-width:3.521;stroke-miterlimit:10;}
	.st2{fill:none;stroke:#FFFFFF;stroke-width:3.2045;stroke-linecap:round;stroke-linejoin:round;stroke-miterlimit:10;}
	.st3{fill:#FFFFFF;}
</style>
<g>
	<g>
		<polygon class="st0" points="2.01,321.32 2.16,325.19 2.54,329.05 2.9,332.9 2.51,336.81 3.45,340.61 4.25,344.4 4.63,348.25 
			5.48,352.02 6.2,355.81 6.96,359.6 7.79,363.38 8.8,367.12 9.93,370.82 11.22,374.48 12.94,377.96 13.87,381.76 15.29,385.37 
			17.65,388.54 18.84,392.26 20.75,395.63 22.46,399.11 24.34,402.5 26.78,405.54 28.38,409.11 30.67,412.25 33.58,414.91 
			35.46,418.33 38.28,421.03 40.81,423.94 42.98,427.18 45.84,429.79 48.49,432.6 51.34,435.21 53.97,438.05 56.67,440.85 
			59.71,443.25 62.96,445.38 65.86,447.94 69.29,449.79 72.28,452.27 75.66,454.14 78.73,456.54 82.19,458.27 85.58,460.12 
			88.73,462.44 92.57,463.4 95.93,465.34 99.47,466.88 103.01,468.45 106.6,469.9 110.47,470.52 114.04,472.06 117.81,472.92 
			121.36,474.63 125.16,475.39 129.02,475.86 132.88,476.22 136.62,477.3 140.45,477.89 144.31,478.21 148.17,478.4 152.02,478.82 
			155.9,478.72 159.76,479.28 163.62,478.54 167.5,478.73 171.38,478.86 175.25,478.58 179.01,477.33 182.92,477.4 186.76,476.93 
			190.52,475.96 194.38,475.49 198.16,474.61 201.9,473.59 205.55,472.26 209.23,471.05 212.88,469.78 216.45,468.28 220.24,467.33 
			223.57,465.26 227.18,463.86 230.47,461.8 233.83,459.89 237.26,458.13 240.53,456.07 243.86,454.12 247.54,452.69 250.52,450.18 
			253.84,448.17 256.43,445.19 259.88,443.31 262.56,440.49 265.45,437.93 268.4,435.42 271.43,432.99 274.1,430.18 276.66,427.27 
			278.87,424.06 281.25,421.02 284.13,418.37 286.58,415.37 288.2,411.78 290.4,408.61 293.05,405.72 295.06,402.41 296.46,398.75 
			298.58,395.52 300.28,392.05 302.48,388.82 303.53,385.05 305.24,381.58 306.9,378.08 308.1,374.4 309.32,370.73 310.99,367.2 
			311.56,363.33 312.62,359.62 313.63,355.88 314.62,352.13 315.3,348.32 316.01,344.51 316.03,340.6 316.17,336.73 316.98,332.93 
			317.54,329.08 317.12,325.19 317.66,321.32 317.57,317.47 317.11,313.62 317.41,309.76 316.88,305.91 317.7,302.06 317.61,298.21 
			317.13,294.36 317.17,290.5 317.6,286.65 317.68,282.8 317.18,278.94 317.47,275.09 317.03,271.23 317.67,267.38 317.15,263.53 
			317.77,259.67 317.13,255.82 316.95,251.96 317.05,248.11 317.53,244.25 317.61,240.4 317.43,236.54 317.46,232.68 317.7,228.83 
			316.87,224.97 317.72,221.11 317.4,217.26 317.64,213.4 317.02,209.55 317.27,205.69 317.31,201.84 317.64,197.98 316.95,194.13 
			317.4,190.27 316.94,186.41 317.55,182.55 317.32,178.69 316.93,174.83 317.19,170.98 317.34,167.12 316.95,163.25 317.65,159.38 
			316.81,155.53 317.54,151.63 317.33,147.76 316.6,143.94 315.98,140.11 315.62,136.26 315.29,132.39 314.31,128.64 313.35,124.89 
			312.74,121.06 311.28,117.45 310.25,113.73 309.07,110.06 307.98,106.35 307.1,102.55 305.14,99.17 304.1,95.4 301.95,92.13 
			300.1,88.74 298.65,85.14 296.61,81.86 294.67,78.52 292.88,75.08 290.46,72.05 288.25,68.89 286.65,65.27 283.78,62.6 
			281.75,59.27 279.05,56.48 276.75,53.35 273.52,51.08 271.46,47.68 268.21,45.47 265.36,42.87 262.88,39.83 259.48,37.87 
			256.55,35.35 253.85,32.51 250.7,30.25 247.34,28.3 244.11,26.18 240.92,23.98 237.2,22.67 234.01,20.46 230.7,18.45 
			227.16,16.88 223.54,15.49 219.98,13.99 216.44,12.44 212.73,11.34 209.31,9.41 205.62,8.2 201.77,7.6 198.08,6.43 194.39,5.2 
			190.48,4.96 186.63,4.58 182.84,3.82 179.09,2.68 175.21,2.61 171.37,2.08 167.47,2.49 163.62,2.13 159.76,1.77 155.9,1.98 
			152.04,2.18 148.19,2.53 144.31,2.53 140.42,2.56 136.62,3.41 132.75,3.74 129.02,4.85 125.29,5.9 121.52,6.72 117.78,7.7 
			114.03,8.65 110.24,9.5 106.69,11.07 102.89,11.95 99.46,13.81 95.74,14.95 92.39,16.94 88.86,18.53 85.38,20.23 81.95,22.04 
			78.95,24.56 75.69,26.62 72.48,28.76 68.93,30.42 65.67,32.52 63.12,35.56 59.84,37.63 56.72,39.94 53.66,42.33 51.37,45.54 
			48.48,48.11 45.83,50.92 43.28,53.82 40.57,56.57 38.07,59.52 35.19,62.18 33.35,65.64 30.83,68.59 28.84,71.91 26.64,75.09 
			24.29,78.19 22.61,81.7 20.64,85.03 19.06,88.56 17.64,92.17 15.41,95.4 14.19,99.09 13.05,102.79 10.98,106.15 10.54,110.09 
			9.3,113.74 7.61,117.28 7.31,121.19 5.75,124.8 4.93,128.58 4.92,132.51 4,136.28 3.52,140.11 2.91,143.93 3.09,147.82 
			2.82,151.67 2.35,155.52 1.94,159.38 2.06,163.24 2.5,167.09 2.17,170.94 2.05,174.8 2.15,178.65 2.65,182.5 2.41,186.35 
			2.14,190.21 2.64,194.06 2.38,197.91 2.24,201.76 2.4,205.62 2.21,209.47 2.58,213.33 2.32,217.18 1.8,221.04 2.61,224.89 
			2.65,228.75 1.84,232.6 2.64,236.46 2.19,240.31 2.49,244.17 2.11,248.02 2.17,251.88 2.41,255.74 2,259.59 2.17,263.45 
			2.48,267.31 1.94,271.16 2.69,275.01 2.4,278.87 1.99,282.73 1.98,286.58 1.77,290.44 2.65,294.3 2.53,298.16 2.02,302.02 
			2.5,305.88 2.12,309.73 2.28,313.59 2.07,317.45 		"/>
		<polygon class="st1" points="2.01,321.32 2.16,325.19 2.54,329.05 2.9,332.9 2.51,336.81 3.45,340.61 4.25,344.4 4.63,348.25 
			5.48,352.02 6.2,355.81 6.96,359.6 7.79,363.38 8.8,367.12 9.93,370.82 11.22,374.48 12.94,377.96 13.87,381.76 15.29,385.37 
			17.65,388.54 18.84,392.26 20.75,395.63 22.46,399.11 24.34,402.5 26.78,405.54 28.38,409.11 30.67,412.25 33.58,414.91 
			35.46,418.33 38.28,421.03 40.81,423.94 42.98,427.18 45.84,429.79 48.49,432.6 51.34,435.21 53.97,438.05 56.67,440.85 
			59.71,443.25 62.96,445.38 65.86,447.94 69.29,449.79 72.28,452.27 75.66,454.14 78.73,456.54 82.19,458.27 85.58,460.12 
			88.73,462.44 92.57,463.4 95.93,465.34 99.47,466.88 103.01,468.45 106.6,469.9 110.47,470.52 114.04,472.06 117.81,472.92 
			121.36,474.63 125.16,475.39 129.02,475.86 132.88,476.22 136.62,477.3 140.45,477.89 144.31,478.21 148.17,478.4 152.02,478.82 
			155.9,478.72 159.76,479.28 163.62,478.54 167.5,478.73 171.38,478.86 175.25,478.58 179.01,477.33 182.92,477.4 186.76,476.93 
			190.52,475.96 194.38,475.49 198.16,474.61 201.9,473.59 205.55,472.26 209.23,471.05 212.88,469.78 216.45,468.28 220.24,467.33 
			223.57,465.26 227.18,463.86 230.47,461.8 233.83,459.89 237.26,458.13 240.53,456.07 243.86,454.12 247.54,452.69 250.52,450.18 
			253.84,448.17 256.43,445.19 259.88,443.31 262.56,440.49 265.45,437.93 268.4,435.42 271.43,432.99 274.1,430.18 276.66,427.27 
			278.87,424.06 281.25,421.02 284.13,418.37 286.58,415.37 288.2,411.78 290.4,408.61 293.05,405.72 295.06,402.41 296.46,398.75 
			298.58,395.52 300.28,392.05 302.48,388.82 303.53,385.05 305.24,381.58 306.9,378.08 308.1,374.4 309.32,370.73 310.99,367.2 
			311.56,363.33 312.62,359.62 313.63,355.88 314.62,352.13 315.3,348.32 316.01,344.51 316.03,340.6 316.17,336.73 316.98,332.93 
			317.54,329.08 317.12,325.19 317.66,321.32 317.57,317.47 317.11,313.62 317.41,309.76 316.88,305.91 317.7,302.06 317.61,298.21 
			317.13,294.36 317.17,290.5 317.6,286.65 317.68,282.8 317.18,278.94 317.47,275.09 317.03,271.23 317.67,267.38 317.15,263.53 
			317.77,259.67 317.13,255.82 316.95,251.96 317.05,248.11 317.53,244.25 317.61,240.4 317.43,236.54 317.46,232.68 317.7,228.83 
			316.87,224.97 317.72,221.11 317.4,217.26 317.64,213.4 317.02,209.55 317.27,205.69 317.31,201.84 317.64,197.98 316.95,194.13 
			317.4,190.27 316.94,186.41 317.55,182.55 317.32,178.69 316.93,174.83 317.19,170.98 317.34,167.12 316.95,163.25 317.65,159.38 
			316.81,155.53 317.54,151.63 317.33,147.76 316.6,143.94 315.98,140.11 315.62,136.26 315.29,132.39 314.31,128.64 313.35,124.89 
			312.74,121.06 311.28,117.45 310.25,113.73 309.07,110.06 307.98,106.35 307.1,102.55 305.14,99.17 304.1,95.4 301.95,92.13 
			300.1,88.74 298.65,85.14 296.61,81.86 294.67,78.52 292.88,75.08 290.46,72.05 288.25,68.89 286.65,65.27 283.78,62.6 
			281.75,59.27 279.05,56.48 276.75,53.35 273.52,51.08 271.46,47.68 268.21,45.47 265.36,42.87 262.88,39.83 259.48,37.87 
			256.55,35.35 253.85,32.51 250.7,30.25 247.34,28.3 244.11,26.18 240.92,23.98 237.2,22.67 234.01,20.46 230.7,18.45 
			227.16,16.88 223.54,15.49 219.98,13.99 216.44,12.44 212.73,11.34 209.31,9.41 205.62,8.2 201.77,7.6 198.08,6.43 194.39,5.2 
			190.48,4.96 186.63,4.58 182.84,3.82 179.09,2.68 175.21,2.61 171.37,2.08 167.47,2.49 163.62,2.13 159.76,1.77 155.9,1.98 
			152.04,2.18 148.19,2.53 144.31,2.53 140.42,2.56 136.62,3.41 132.75,3.74 129.02,4.85 125.29,5.9 121.52,6.72 117.78,7.7 
			114.03,8.65 110.24,9.5 106.69,11.07 102.89,11.95 99.46,13.81 95.74,14.95 92.39,16.94 88.86,18.53 85.38,20.23 81.95,22.04 
			78.95,24.56 75.69,26.62 72.48,28.76 68.93,30.42 65.67,32.52 63.12,35.56 59.84,37.63 56.72,39.94 53.66,42.33 51.37,45.54 
			48.48,48.11 45.83,50.92 43.28,53.82 40.57,56.57 38.07,59.52 35.19,62.18 33.35,65.64 30.83,68.59 28.84,71.91 26.64,75.09 
			24.29,78.19 22.61,81.7 20.64,85.03 19.06,88.56 17.64,92.17 15.41,95.4 14.19,99.09 13.05,102.79 10.98,106.15 10.54,110.09 
			9.3,113.74 7.61,117.28 7.31,121.19 5.75,124.8 4.93,128.58 4.92,132.51 4,136.28 3.52,140.11 2.91,143.93 3.09,147.82 
			2.82,151.67 2.35,155.52 1.94,159.38 2.06,163.24 2.5,167.09 2.17,170.94 2.05,174.8 2.15,178.65 2.65,182.5 2.41,186.35 
			2.14,190.21 2.64,194.06 2.38,197.91 2.24,201.76 2.4,205.62 2.21,209.47 2.58,213.33 2.32,217.18 1.8,221.04 2.61,224.89 
			2.65,228.75 1.84,232.6 2.64,236.46 2.19,240.31 2.49,244.17 2.11,248.02 2.17,251.88 2.41,255.74 2,259.59 2.17,263.45 
			2.48,267.31 1.94,271.16 2.69,275.01 2.4,278.87 1.99,282.73 1.98,286.58 1.77,290.44 2.65,294.3 2.53,298.16 2.02,302.02 
			2.5,305.88 2.12,309.73 2.28,313.59 2.07,317.45 		"/>
	</g>
	<g>
		<polyline class="st2" points="29.12,184.9 29.07,188.76 29.17,192.62 29.15,196.48 29.02,200.34 29.48,204.2 29.01,208.06 
			29.19,211.92 29.06,215.78 29.4,219.65 29.26,223.51 29.24,227.37 29.05,231.23 29.43,235.1 29.19,238.96 29.44,242.82 
			29.1,246.68 29.23,250.55 29.44,254.41 29.3,258.28 29.22,262.14 29.43,266 29.05,269.86 29.49,273.72 29.01,277.59 29,281.45 
			29.22,285.31 29.32,289.18 29.24,293.05 29.08,296.91 29.24,300.78 29.33,304.64 29.17,308.51 29.44,312.38 29.42,316.25 
			29.49,320.12 29.56,323.98 29.57,327.86 30.27,331.68 30.49,335.56 31.43,339.32 32.26,343.1 32.91,346.91 33.98,350.63 
			35.05,354.35 36.08,358.07 37.57,361.65 38.98,365.24 40.07,368.98 42.02,372.35 43.49,375.94 45.44,379.28 47.2,382.74 
			49.6,385.8 51.31,389.31 53.83,392.27 56.14,395.36 58.26,398.62 61.04,401.34 63.55,404.28 65.96,407.33 68.7,410.06 
			71.63,412.6 74.52,415.17 77.42,417.74 80.71,419.82 83.69,422.29 86.78,424.62 90.07,426.67 93.43,428.57 96.8,430.48 
			100.18,432.36 103.7,433.95 107.06,435.91 110.61,437.45 114.32,438.59 117.93,439.99 121.56,441.36 125.37,442.13 129.15,442.91 
			132.9,443.85 136.63,444.92 140.49,445.35 144.31,445.97 148.19,446.01 152.03,446.42 155.89,446.76 159.76,446.73 163.63,446.63 
			167.49,446.4 171.36,446.3 175.23,446.12 179.05,445.43 182.9,444.96 186.66,444 190.4,443.01 194.15,442.08 197.87,441.01 
			201.57,439.9 205.28,438.78 208.82,437.2 212.49,435.95 215.91,434.11 219.48,432.59 222.79,430.58 226.18,428.71 229.51,426.74 
			232.78,424.65 235.74,422.14 238.83,419.82 241.85,417.41 245.04,415.2 248.01,412.72 250.5,409.71 253.4,407.15 256.15,404.43 
			258.82,401.62 260.97,398.37 263.44,395.4 265.72,392.27 267.88,389.07 270.09,385.9 272.11,382.6 274.31,379.4 275.82,375.82 
			277.7,372.43 279.19,368.86 280.75,365.32 282.34,361.79 283.47,358.08 284.71,354.41 285.67,350.66 286.46,346.87 287.68,343.18 
			288.24,339.35 288.69,335.5 289.62,331.73 289.54,327.83 289.87,323.98 290.39,320.13 290.06,316.25 290.43,312.39 290.44,308.53 
			290.06,304.67 290.23,300.81 290.21,296.95 290.32,293.09 290.03,289.23 290.06,285.37 290.24,281.5 290.44,277.64 290.37,273.78 
			290.13,269.92 290.31,266.06 290.37,262.19 290.32,258.33 290.05,254.47 290.18,250.6 290.33,246.74 290.05,242.88 290.19,239.01 
			290.27,235.15 290.19,231.29 290.29,227.43 290.08,223.56 290.23,219.7 290.51,215.84 290.07,211.97 290.05,208.11 290.49,204.24 
			290.06,200.37 290.3,196.51 290.14,192.64 290.34,188.77 290.31,184.9 		"/>
	</g>
	<g>
		<polyline class="st2" points="63.87,403.83 67.69,404.06 71.41,404.89 74.89,406.42 78.18,408.3 81.38,410.37 84.77,412.11 
			88.32,413.44 91.99,414.43 95.81,414.72 99.59,414.17 103.3,413.41 106.93,412.26 110.23,410.34 113.27,408.03 116.64,406.22 
			120.18,404.79 123.95,404.24 127.74,403.77 131.55,404.08 135.27,404.94 138.83,406.27 142.14,408.17 145.2,410.45 148.61,412.17 
			152.14,413.59 155.86,414.41 159.67,414.71 163.5,414.47 167.26,413.74 170.74,412.15 173.97,410.16 177.26,408.22 180.61,406.43 
			184.06,404.84 187.82,404.27 191.61,404 195.43,404.05 199.14,404.93 202.77,406.13 205.91,408.33 209.11,410.4 212.5,412.14 
			216.03,413.54 219.72,414.47 223.55,414.73 227.35,414.31 231.11,413.65 234.59,412.09 238.01,410.41 241.08,408.13 
			244.49,406.45 247.93,404.83 251.66,403.98 255.48,403.8 		"/>
	</g>
	<g>
		<polyline class="st2" points="104.41,433.78 107.73,432.27 110.87,430.4 113.89,428.34 117.14,426.68 120.5,425.26 124.09,424.64 
			127.74,424.52 131.53,424.75 135.3,425.33 138.8,426.85 142.08,428.78 145.29,430.83 148.55,432.81 152.11,434.21 155.86,434.97 
			159.67,435.14 163.48,434.9 167.22,434.13 170.75,432.7 174.12,430.9 177.22,428.68 180.54,426.82 184.06,425.34 187.79,424.54 
			191.61,424.34 195.33,424.53 198.98,425.27 202.37,426.76 205.64,428.5 208.69,430.6 211.96,432.35 215.3,433.95 		"/>
	</g>
	<g>
		<polyline class="st2" points="271.62,380.52 267.8,380.29 263.97,380.14 260.14,379.94 256.34,379.35 252.5,379.36 248.66,379.26 
			244.84,378.94 241.01,378.8 237.18,378.56 233.36,378.31 229.53,378.06 225.71,377.86 221.88,377.68 218.05,377.55 214.21,377.59 
			210.39,377.21 206.56,377.03 202.71,377.31 198.88,376.94 195.05,376.92 191.22,376.75 187.38,376.64 183.54,376.8 179.71,376.47 
			175.87,376.47 172.03,376.82 168.19,376.52 164.35,376.75 160.5,376.77 156.7,376.53 152.91,376.7 149.11,376.69 145.32,376.78 
			141.52,376.68 137.73,376.59 133.93,376.7 130.14,376.95 126.35,376.9 122.56,377.23 118.77,377.16 114.98,377.4 111.18,377.31 
			107.39,377.56 103.59,377.7 99.79,377.56 96.02,378.1 92.22,378.1 88.44,378.26 84.65,378.38 80.86,378.53 77.09,379.04 
			73.29,379.07 69.51,379.4 65.71,379.28 61.93,379.59 58.16,380 54.4,380.43 50.6,380.48 46.84,380.73 		"/>
	</g>
	<g>
		<path class="st2" d="M115.55,283.87l-6.49-9.36c-2.24-3.24-5.49-5.65-9.23-6.87l-21.04-6.87c-0.62-0.2-1.24,0.28-1.21,0.92
			l0.6,11.1c0.2,3.67,2.9,6.73,6.52,7.37l29.82,5.3C115.43,285.63,116.07,284.62,115.55,283.87z"/>
		<path class="st2" d="M73.68,313.28l14.82,4.56c2.21,0.68,4.15,2.01,5.58,3.83l7.93,10.11c0.65,0.82-0.08,2.01-1.11,1.8
			l-15.52-3.14c-7.65-1.55-13.15-8.27-13.15-16.08l0,0C72.22,313.59,72.96,313.05,73.68,313.28z"/>
		<path class="st2" d="M92.94,363.32v9.29c0,3.25-2.63,5.88-5.88,5.88h-15.7c-3.25,0-5.88-2.63-5.88-5.88v-23.45"/>
		<path class="st2" d="M203.97,283.87l6.49-9.36c2.24-3.24,5.49-5.65,9.23-6.87l21.04-6.87c0.62-0.2,1.24,0.28,1.21,0.92l-0.6,11.1
			c-0.2,3.67-2.9,6.73-6.52,7.37l-29.82,5.3C204.1,285.63,203.45,284.62,203.97,283.87z"/>
		<g>
			<path class="st2" d="M239.64,288.18c-1.79,0.32-1.79,0.29-3.58,0.61c-1.79,0.32-1.8,0.27-3.59,0.59s-1.79,0.32-3.58,0.64
				c-1.79,0.32-1.75,0.53-3.54,0.85s-1.82,0.15-3.61,0.47s-1.77,0.39-3.56,0.71c-1.79,0.32-1.81,0.22-3.59,0.54
				c-1.79,0.32-1.78,0.36-3.58,0.68c-1.79,0.32-1.78,0.38-3.57,0.7c-1.34,0.24-2.68,0.41-4.02,0.6c-1.34,0.19-2.69,0.3-4.04,0.45
				c-1.35,0.14-2.68,0.48-4.03,0.57c-1.35,0.1-2.71,0.15-4.07,0.19c-1.35,0.05-2.71-0.1-4.07-0.1c-1.78,0-1.78,0.21-3.56,0.21
				s-1.78-0.2-3.56-0.2s-1.78,0.07-3.56,0.07s-1.78-0.04-3.56-0.04c-1.79,0-1.79-0.02-3.57-0.02c-1.79,0-1.9,0.7-3.58,0.09
				c-1.81-0.66-1.59-1.12-3.1-2.32c-1.51-1.2-1.01-2.36-2.94-2.36s-1.53,1.03-3.04,2.23s-1.18,1.79-3,2.45
				c-1.67,0.61-1.79,0.09-3.57,0.09c-1.78,0-1.78-0.11-3.56-0.11s-1.78,0-3.56,0s-1.78-0.06-3.56-0.06c-1.79,0-1.79,0.07-3.57,0.07
				c-1.79,0-1.79,0-3.57,0c-1.36,0-2.72,0.08-4.07,0.03c-1.36-0.05-2.71-0.13-4.07-0.23c-1.35-0.1-2.69-0.36-4.04-0.5
				s-2.68-0.41-4.02-0.6s-2.7-0.3-4.03-0.53c-1.79-0.32-1.78-0.39-3.56-0.71c-1.79-0.32-1.82-0.16-3.61-0.48s-1.77-0.4-3.56-0.72
				s-1.82-0.16-3.6-0.48c-1.79-0.32-1.77-0.42-3.56-0.74c-1.79-0.32-1.77-0.41-3.56-0.72c-1.79-0.32-1.82-0.14-3.61-0.46
				c-1.79-0.32-1.78-0.4-3.57-0.72s-1.76-0.51-3.55-0.83"/>
		</g>
		<path class="st2" d="M203.24,317.17c1.19,0,1.88,1.34,1.18,2.31l-7.29,10.13c-1.8,2.51-4.7,3.99-7.79,3.99h-59.15
			c-3.09,0-5.99-1.49-7.79-3.99l-7.29-10.13c-0.69-0.96-0.01-2.31,1.18-2.31H203.24z"/>
		<path class="st2" d="M245.84,313.28l-14.82,4.56c-2.21,0.68-4.15,2.01-5.58,3.83l-7.93,10.11c-0.65,0.82,0.08,2.01,1.11,1.8
			l15.52-3.14c7.65-1.55,13.15-8.27,13.15-16.08l0,0C247.3,313.59,246.57,313.05,245.84,313.28z"/>
		<g>
			<path class="st2" d="M228.99,250.45c1.33,0,2.58-0.19,3.74-0.63c1.21-0.46,2.27-1.16,3.22-2c0.96-0.84,1.85-1.77,2.45-2.9
				c0.6-1.11,1.03-2.34,1.21-3.63c0.16-1.23-0.06-2.49-0.36-3.78c-0.44-1.9-0.35-1.92-0.79-3.82c-0.44-1.9-0.32-1.93-0.75-3.84
				c-0.44-1.9-0.61-1.87-1.05-3.77c-0.44-1.9-0.28-1.94-0.72-3.85c-0.44-1.9-0.43-1.91-0.87-3.81s-0.42-1.91-0.86-3.81
				s-0.69-1.85-1.13-3.75s-0.34-1.93-0.78-3.83c-0.44-1.91-0.47-1.9-0.91-3.81s-0.31-1.94-0.75-3.85c-0.39-1.7-1.96-2.94-3.7-2.94
				c-1.92,0-1.92,0.04-3.84,0.04s-1.92-0.01-3.84-0.01s-1.92-0.02-3.83-0.02c-1.92,0-1.92,0.07-3.83,0.07
				c-1.92,0-1.92,0.05-3.84,0.05s-1.92,0.05-3.84,0.05s-1.92-0.25-3.84-0.25s-1.92,0.05-3.84,0.05s-1.92,0.07-3.84,0.07
				s-1.92-0.01-3.84-0.01s-1.92,0.02-3.84,0.02s-1.92-0.11-3.84-0.11s-1.92,0-3.84,0s-1.92,0.14-3.84,0.14s-1.92-0.13-3.84-0.13
				s-1.92,0.03-3.84,0.03s-1.92,0.11-3.84,0.11s-1.92-0.03-3.84-0.03s-1.92-0.14-3.84-0.14s-1.92,0.07-3.84,0.07
				s-1.92,0.11-3.84,0.11s-1.92,0.02-3.83,0.02c-1.92,0-1.92,0-3.84,0s-1.92-0.05-3.84-0.05s-1.92,0.03-3.84,0.03
				s-1.92-0.04-3.84-0.04s-1.92-0.2-3.84-0.2s-1.92,0.16-3.84,0.16s-1.92,0.02-3.84,0.02s-1.92,0.11-3.84,0.11s-1.92,0.02-3.84,0.02
				s-1.92-0.04-3.84-0.04s-1.92-0.25-3.84-0.25s-1.92,0.27-3.85,0.27c-1.92,0-1.92,0.01-3.85,0.01c-1.74,0-3.15,1.08-3.54,2.78
				c-0.44,1.9-0.58,1.87-1.02,3.77c-0.44,1.9-0.34,1.93-0.78,3.83c-0.44,1.9-0.48,1.89-0.92,3.8c-0.44,1.9-0.34,1.93-0.78,3.83
				c-0.44,1.9-0.59,1.87-1.03,3.77c-0.44,1.9-0.27,1.94-0.71,3.85c-0.44,1.9-0.6,1.87-1.04,3.77c-0.44,1.9-0.55,1.88-0.99,3.78
				c-0.44,1.91-0.32,1.93-0.76,3.84s-0.35,1.93-0.79,3.84c-0.3,1.29-0.36,2.55-0.19,3.78c0.17,1.29,0.46,2.55,1.06,3.66
				c0.61,1.13,1.4,2.19,2.36,3.03c0.95,0.83,2.09,1.52,3.3,1.97c1.16,0.44,2.46,0.71,3.79,0.71c1.92,0,1.92-0.08,3.84-0.08
				s1.92-0.08,3.84-0.08s1.92-0.1,3.84-0.1s1.92,0.11,3.84,0.11s1.92,0.09,3.84,0.09s1.92-0.02,3.84-0.02s1.92,0.07,3.85,0.07
				c1.92,0,1.92-0.23,3.84-0.23s1.92,0.22,3.84,0.22s1.92-0.14,3.84-0.14c1.92,0,1.92,0,3.85,0c1.92,0,1.92,0.04,3.84,0.04
				s1.92,0.06,3.84,0.06s1.92-0.03,3.85-0.03c1.92,0,1.92-0.07,3.84-0.07s1.92-0.07,3.85-0.07c1.92,0,1.92-0.01,3.85-0.01
				c1.92,0,1.92,0.08,3.85,0.08c1.92,0,1.92,0.12,3.85,0.12c1.92,0,1.92-0.18,3.85-0.18c1.92,0,1.92,0.21,3.85,0.21
				c1.92,0,1.92-0.25,3.85-0.25c1.92,0,1.92,0.05,3.84,0.05s1.92,0.1,3.85,0.1c1.92,0,1.92-0.03,3.84-0.03s1.92-0.04,3.85-0.04
				c1.92,0,1.92-0.05,3.85-0.05c1.92,0,1.92,0.16,3.85,0.16c1.92,0,1.92,0.06,3.85,0.06c1.92,0,1.92-0.03,3.85-0.03
				c1.92,0,1.92-0.18,3.85-0.18c1.92,0,1.92,0.01,3.85,0.01c1.92,0,1.92-0.03,3.85-0.03c1.92,0,1.92,0.17,3.85,0.17
				c1.93,0,1.93-0.08,3.85-0.11C227.06,250.43,227.06,250.45,228.99,250.45z"/>
		</g>
		<path class="st2" d="M226.58,362.81v9.8c0,3.25,2.63,5.88,5.88,5.88h15.71c3.25,0,5.88-2.63,5.88-5.88v-23.57"/>
		<path class="st2" d="M72.3,291.56"/>
		<g>
			<path class="st2" d="M247.19,229.45c2.27,0,2.27-0.3,4.55-0.3s2.27-0.05,4.55-0.05c1.56,0,3.06,0.48,4.32,1.21
				c1.3,0.75,2.42,1.86,3.17,3.15c0.73,1.26,0.92,2.76,0.92,4.32c0,1.7,0.16,1.7,0.16,3.41c0,1.7-0.04,1.7-0.04,3.41
				s0.23,1.71,0.23,3.41c0,1.71-0.17,1.71-0.17,3.41c0,1.56-0.38,3.06-1.11,4.31c-0.75,1.3-1.86,2.41-3.16,3.16
				c-1.26,0.73-2.76,1-4.32,1c-1.72,0-1.72,0.11-3.44,0.11"/>
		</g>
		<g>
			<path class="st2" d="M72.16,229.04c-2.27,0-2.27,0.29-4.55,0.29c-2.27,0-2.27-0.07-4.55-0.07c-1.56,0-2.94,0.52-4.2,1.25
				c-1.3,0.75-2.58,1.63-3.33,2.92c-0.73,1.26-0.82,2.79-0.82,4.35c0,1.7,0.01,1.7,0.01,3.41c0,1.7-0.21,1.7-0.21,3.41
				s0.23,1.71,0.23,3.41c0,1.71-0.1,1.71-0.1,3.41c0,1.56,0.37,2.97,1.09,4.23c0.75,1.3,1.87,2.22,3.17,2.97
				c1.26,0.73,2.6,1.46,4.16,1.46c1.72,0,1.72-0.27,3.44-0.27"/>
		</g>
		<line class="st2" x1="139.35" y1="224.84" x2="114.82" y2="249.36"/>
		<line class="st2" x1="148.63" y1="197.15" x2="123.48" y2="222.3"/>
		<g>
			<path class="st3" d="M213.11,82.93c0.52,0,1.03,0.04,1.51,0.11c1.82,0.27,3.36,0.74,3.87,0.99c1.58,0.79,1.32,2.37,2.37,2.37
				c0.52,0,2.18-0.29,3.85-0.43c1.74-0.15,3.48-0.14,3.88-0.21c0.01,0,0.01,0,0.02,0c0.35,0,0.72,1.57,0.8,3.41
				c0.05,1.12-0.06,2.32-0.42,3.47s-0.95,2.07-1.95,2.75c-0.97,0.66-2.44,1.13-3.84,1.66c-1.67,0.64-2.95,1.57-3.23,2.5
				c-0.29,0.94-0.49,2.33-0.28,3.9c0.16,1.27,0.61,2.62,0.73,3.91c0.07,0.73,0.21,2.11,0.5,3.88c0.19,1.15,0.61,2.44,0.79,3.85
				c0.16,1.24,0,2.59,0.09,3.94c0.09,1.3,0.32,2.61,0.29,3.92c-0.03,1.34-0.11,2.67-0.33,3.92c-0.23,1.35-0.67,2.62-1.18,3.75
				c-0.44,0.97-0.91,2.2-1.39,3.58c-0.39,1.14-1.02,2.31-1.4,3.61c-0.35,1.21-0.36,2.56-0.67,3.82c-0.31,1.26-0.97,2.45-1.2,3.69
				c-0.25,1.33-0.35,2.65-0.48,3.84c-0.15,1.44-0.01,2.77,0.08,3.86c0.15,1.77,0.7,2.78,1.73,3c1.37,0.29,2.49,1.19,3.42,2.17
				c0.92,0.97,1.74,2.13,2.24,3.39c0.52,1.33,0.51,2.88,0.56,4.1c1.13,0.66,2.18,1.51,3.1,2.44c0.91,0.93,1.71,1.9,2.35,3.05
				c0.63,1.12,1.16,2.28,1.47,3.58c0.46,1.86,0.81,1.78,1.27,3.64s0.11,1.95,0.56,3.81c0.46,1.86,0.36,1.89,0.81,3.75
				c0.46,1.86,0.39,1.88,0.84,3.74c0.46,1.86,0.71,1.8,1.17,3.66c0.46,1.86,0.34,1.89,0.79,3.75c0.46,1.86,0.71,1.8,1.17,3.66
				c0.46,1.86,0.25,1.91,0.7,3.77c0.46,1.86,0.67,1.81,1.13,3.67s0.28,1.9,0.73,3.76c0.46,1.86,0.44,1.86,0.9,3.72
				c0.45,1.86,0.32,1.89,0.77,3.75c0.46,1.86,0.91,1.75,1.36,3.61s0.45,1.86,0.91,3.72s0.27,1.91,0.72,3.77
				c0.46,1.86,0.47,1.86,0.93,3.72c0.46,1.86,0.37,1.88,0.82,3.74c0.46,1.86,0.55,1.84,1,3.7c0.27,1.1,0.31,2.24,0.53,3.35
				s0.46,2.21,0.64,3.32s0.6,2.2,0.74,3.32c0.14,1.12,0.14,2.26,0.24,3.38c0.16,2.03-0.1,2.05,0.07,4.08
				c0.16,2.03,0.13,2.03,0.29,4.07c0.16,2.03,0.18,2.03,0.34,4.05c0.16,2.03,0.33,2.01,0.49,4.04s0.03,2.04,0.2,4.06
				c0.16,2.03,0.41,2.01,0.57,4.04s-0.17,2.07,0.19,4.07c0.38,2.16,0.85,2.05,1.42,4.16c0.57,2.11,0.21,2.21,0.78,4.33
				c0.28,1.04,0.72,2.03,0.9,3.09c0.19,1.06,0.32,2.12,0.41,3.19s0.12,2.14,0.12,3.22c0,1.84-0.25,1.84-0.25,3.67
				s0.08,1.84,0.08,3.67c0,1.83,0.09,1.83,0.09,3.67c0,1.83,0.04,1.83,0.04,3.66c0,1.83,0.09,1.83,0.09,3.66
				c0,1.83,0.01,1.83,0.01,3.67c0,1.83,0.19,1.83,0.19,3.67s-0.25,1.83-0.25,3.66c0,1.83,0.13,1.83,0.13,3.66
				c0,1.83-0.34,1.83-0.34,3.66c0,1.83,0.39,1.83,0.39,3.66c0,1.81-0.52,3.71-1.49,5.25c-0.95,1.52-1.06,1.45-2.01,2.97
				s-1.24,1.34-2.19,2.86c-0.66,1.06-1.12,2.28-2.01,3.11c-0.9,0.85-2,1.5-3.07,2.09s-2.24,1.05-3.44,1.36
				c-1.18,0.3-2.42,0.47-3.67,0.47c-1.94,0-1.94-0.26-3.88-0.26s-1.94-0.04-3.88-0.04s-1.94-0.03-3.88-0.03s-1.94,0-3.88,0
				s-1.94,0.21-3.88,0.21s-1.94,0.2-3.88,0.2s-1.94,0.12-3.88,0.12s-1.94-0.43-3.88-0.43s-1.94,0.27-3.88,0.27s-1.94-0.31-3.87-0.31
				c-1.94,0-1.94,0.42-3.88,0.42s-1.94-0.26-3.87-0.26c-1.94,0-1.94,0.04-3.87,0.04s-1.93,0.14-3.87,0.14s-1.94,0.05-3.87,0.05
				c-1.94,0-1.94-0.31-3.87-0.31c-1.94,0-1.94,0.25-3.88,0.25s-1.94-0.35-3.87-0.35c-1.94,0-1.94,0.06-3.87,0.06
				c-1.94,0-1.94,0.25-3.87,0.25c-1.94,0-1.94,0.19-3.88,0.19s-1.94-0.46-3.88-0.46s-1.94,0.1-3.88,0.1s-1.94,0.22-3.88,0.22
				s-1.94-0.04-3.88-0.04s-1.94-0.04-3.88-0.04s-1.94,0.17-3.88,0.17s-1.94-0.08-3.88-0.08s-1.94-0.19-3.88-0.19
				c-1.94,0-1.94-0.12-3.87-0.12c-1.94,0-1.94,0.4-3.88,0.4c-1.94,0-1.94-0.21-3.87-0.21c-1.94,0-1.94,0.02-3.87,0.02
				s-1.93-0.17-3.87-0.17s-1.94-0.05-3.87-0.05s-1.94,0.38-3.87,0.38c-1.94,0-1.94-0.43-3.88-0.43c-1.94,0-1.94,0.24-3.87,0.24
				c-1.94,0-1.94,0.14-3.87,0.14c-1.94,0-1.94-0.32-3.87-0.32c-1.25,0-2.45-0.08-3.63-0.39c-1.2-0.31-2.31-0.77-3.39-1.37
				c-1.07-0.59-2.14-1.2-3.04-2.05c-0.88-0.84-1.45-1.93-2.11-2.99c-0.95-1.52-1.12-1.41-2.07-2.93s-1.01-1.48-1.96-3
				c-0.96-1.54-1.39-3.32-1.39-5.13c0-1.84-0.26-1.84-0.26-3.67s0.03-1.84,0.03-3.67c0-1.83,0.17-1.83,0.17-3.67
				c0-1.83-0.2-1.83-0.2-3.66c0-1.83,0.08-1.83,0.08-3.66c0-1.83-0.16-1.83-0.16-3.67c0-1.83,0.39-1.83,0.39-3.66
				c0-1.83,0.09-1.83,0.09-3.67c0-1.83-0.4-1.83-0.4-3.66c0-1.83-0.02-1.83-0.02-3.66c0-1.83,0.1-1.83,0.1-3.66
				c0-1.07,0.38-2.12,0.48-3.19c0.09-1.07-0.2-2.19-0.01-3.24c0.19-1.05,0.7-2.04,0.98-3.08c0.57-2.11,0.64-2.1,1.21-4.21
				s0.77-2.09,1.15-4.24c0.36-2.01,0.15-2.05,0.31-4.08c0.16-2.03,0.15-2.03,0.31-4.06c0.16-2.03,0.07-2.04,0.23-4.06
				c0.16-2.03,0.36-2.01,0.52-4.04c0.16-2.03-0.06-2.05,0.1-4.07c0.16-2.03,0.42-2.01,0.58-4.03c0.16-2.03,0.17-2.03,0.33-4.05
				c0.09-1.13,0.08-2.25,0.21-3.37c0.14-1.12,0.22-2.24,0.4-3.36s0.36-2.23,0.59-3.33c0.22-1.11,0.51-2.2,0.78-3.29
				c0.46-1.86,0.48-1.86,0.94-3.72s0.22-1.92,0.67-3.79c0.46-1.86,0.77-1.78,1.23-3.65c0.46-1.86,0.43-1.87,0.89-3.73
				s0.56-1.83,1.02-3.7c0.46-1.86,0.4-1.87,0.86-3.74c0.46-1.86,0.02-1.97,0.47-3.83c0.46-1.86,0.77-1.78,1.23-3.64
				c0.46-1.86,0.62-1.82,1.08-3.68c0.46-1.86,0.13-1.94,0.59-3.8s0.29-1.9,0.75-3.76c0.45-1.86,0.79-1.78,1.24-3.64
				c0.46-1.86,0.44-1.86,0.9-3.72c0.45-1.86,0.22-1.92,0.67-3.77c0.46-1.86,0.8-1.78,1.25-3.64c0.46-1.86,0.17-1.93,0.63-3.79
				s0.37-1.88,0.82-3.74c0.46-1.86,0.83-1.77,1.28-3.63c0.3-1.24,0.74-2.35,1.33-3.44c0.6-1.11,1.12-2.26,1.97-3.16
				c0.86-0.91,1.99-1.47,3.05-2.14c1.05-0.66,2.04-1.47,3.24-1.84c1.17-0.37,2.43-0.56,3.7-0.62c0.01,0,0.02,0,0.03,0
				c0.27,0,0.34,0.16,0.57,0.16c0.03,0,0.07,0,0.11-0.01c0.05-0.1-0.09-0.45-0.03-0.55c0.65-1.15,1.2-2.43,1.67-3.81
				c0.44-1.32,0.98-2.64,1.24-4.01c0.28-1.44,0.21-2.87,0.29-4.18c0.06-0.98,0.14-1.9-0.06-2.84c-0.2-0.93-0.43-1.86-0.79-2.77
				c-0.54-1.37-0.89-2.81-1.22-4.24c-0.25-1.1-0.34-2.15-0.26-3.24c0.08-1.1-0.09-2.25,0.18-3.33c0.32-1.28,0.84-2.43,1.24-3.83
				c-0.71,0.19-1.35,0.31-1.95,0.31c-0.36,0-0.71-0.04-1.05-0.14c-0.97-0.26-1.68-1.11-2.48-1.84c-0.49-0.45-0.75-1.05-0.45-1.64
				c0.67-1.33,0.89-2.83,1.39-4.22c0.39-1.09,1.06-1.9,2.08-2.46c0.35-0.2,0.73-0.8,0.58-1.18c-0.48-1.26-1.11-2.35-1.62-3.7
				c1.08,0.21,1.91,0.45,2.86,0.68c1.28,0.3,2.46,0.73,3.62,1.28c1.15,0.55,2.47,0.91,3.44,1.82c1.03,0.96,1.84,2.14,2.35,3.33
				c0.52,1.21,0.52,2.6,0.48,4c-0.04,1.22,0.36,2.35,0.55,3.48c0.2,1.18,0.36,2.31,0.77,3.41c0.41,1.09,0.98,2.1,1.58,3.13
				c0.58,1,0.96,2.17,1.69,3.11c0.75,0.97,1.66,1.82,2.44,2.76c0.78,0.94,1.49,1.95,2.26,2.9c0.67,0.83,1.41,1.59,2,2.47
				c0.58,0.88,1.31,1.72,1.7,2.73c0.29,0.75,0.26,1.66,0.49,2.44c1-0.69,1.53-1.57,1.87-2.41c0.39-0.98,0.53-1.99,0.13-3
				c-0.51-1.31-1.35-2.43-2.11-3.6c-0.56-0.85-1.25-1.61-1.81-2.46s-1.13-1.7-1.64-2.58c-0.69-1.21-1.02-2.59-1.42-3.9
				s-0.61-2.63-0.54-4.05c0.08-1.48,0.46-2.78,1.07-3.96c0.66-1.27,1.55-2.29,2.65-3.11c1.12-0.83,2.3-1.71,3.67-1.98
				c0.59-0.12,1.21-0.18,1.84-0.18c0.8,0,1.61,0.1,2.39,0.29c1.26,0.31,2.52,0.9,3.31,1.94c0.69,0.91,0.3,1.91-0.19,2.61
				c-0.39,0.56-0.94,0.88-1.6,0.88c-0.22,0-0.44-0.03-0.68-0.1c-0.31-0.09-0.6-0.22-0.9-0.35c-0.82-0.34-1.6-0.69-2.48-0.69
				c-0.65,0-1.35,0.19-2.15,0.71c-1.41,0.92-2.41,2.35-2.58,4.03c-0.2,1.84,0.23,3.6,1.17,5.1c0.43,0.68,1.26,1.88,2.21,3.24
				c0.72,1.02,1.52,2.13,2.22,3.22c0.81,1.24,1.8,2.27,2.23,3.23c0.44,0.99,0.72,2.21,0.67,3.41c-0.05,1.13-0.38,2.32-0.78,3.39
				c-0.43,1.13-1.16,2.09-1.9,2.85c-0.89,0.92-1.71,1.46-2.48,1.83c-1.11,0.53-2.06,0.74-2.91,1.05c-0.23,0.08-0.53,0.23-0.68,0.45
				c-0.67,0.96,0.23,1.9-0.42,2.87c-0.05,0.07,0.03,0.39-0.02,0.55c1.25-0.04,2.49-0.4,3.72-0.44c0.12,0,0.25,0,0.37,0
				c1.01,0,2.02,0.1,3.02,0.1c0.11,0,0.22,0,0.33,0c1.24-0.03,2.48-0.05,3.71-0.07c1.24-0.03,2.48-0.11,3.71-0.14
				c1.24-0.02,2.48-0.07,3.71-0.09c0.03,0,0.05,0,0.08,0c1.19,0,2.39,0.36,3.58,0.36c0.02,0,0.04,0,0.06,0
				c1.24-0.01,2.47-0.27,3.72-0.28c0.1,0,0.21,0,0.31,0c1.08,0,2.16,0.04,3.24,0.04c0.06,0,0.11,0,0.17,0c0.04,0,0.08,0,0.12,0
				c1.19,0,2.39,0.06,3.6,0.06l0,0c0,0,0,0,0.01,0c1.23,0,2.46,0.05,3.71,0.05c0.02,0,0.04,0,0.06,0c1.17,0,2.42-0.1,3.61-0.1
				c0.04,0,0.08,0,0.12,0c-0.13-1.33,1.41-1.91,0.64-3.51c-0.77-1.61-1.18-1.55-2.92-1.95c-0.27-0.06-0.48-0.09-0.66-0.09
				c-1.08,0-0.78,1.05-2.56,1.98c-0.99,0.51-2.12,1.12-3.57,1.45c-1.06,0.24-2.23,0.37-3.52,0.37c-0.11,0-0.22,0-0.33,0
				c-1.19-0.02-2.5,0-3.88-0.3c-1.23-0.27-2.25-0.97-3.28-1.61c-1.04-0.65-2.23-1.18-3.01-2.13c-0.77-0.94-1.09-2.2-1.58-3.34
				c-0.47-1.11-1.15-2.21-1.33-3.45c-0.17-1.2,0.01-2.46,0.15-3.7c0.14-1.19,0.46-2.38,0.91-3.55c0.43-1.11,0.99-2.19,1.72-3.23
				c0.68-0.97,1.6-1.75,2.55-2.61c0.87-0.79,1.53-1.61,2.64-2.28c0.83,1.63-0.62,1.23-1.42,3.22c-0.41,1.02-0.96,2.17-1.28,3.45
				c-0.29,1.16-0.25,2.42-0.31,3.66c-0.06,1.23,0.14,2.39,0.46,3.57c0.31,1.15,0.62,2.31,1.44,3.3c0.71,0.86,1.76,1.43,2.95,2.08
				c0.57,0.31,1.09,0.83,1.81,0.98c0.42,0.09,0.83,0.13,1.24,0.13c0.97,0,1.92-0.23,2.8-0.57c1.28-0.5,2.47-1.27,3.3-2.37
				c0.81-1.07,1.35-2.39,1.48-3.81c0.12-1.33,0.13-2.63,0.37-3.85c0.26-1.3,0.62-2.54,1.02-3.73c0.41-1.24,1.07-2.35,1.64-3.49
				c0.57-1.14,1.2-2.26,1.93-3.32c0.72-1.04,1.28-2.24,2.16-3.22c0.83-0.93,1.87-1.74,2.84-2.64c0.91-0.85,1.94-1.62,2.98-2.45
				c0.97-0.78,1.97-1.58,3.06-2.36c1.01-0.72,2.18-1.29,3.29-2.02c1.09-0.72,1.88-1.79,2.88-2.49c1.06-0.76,2.28-1.22,3.24-1.97
				c1.03-0.8,1.87-1.75,2.79-2.56c0.98-0.86,2.14-1.47,3-2.34c0.91-0.92,1.4-2.17,2.18-3.12c0.82-0.98,1.59-1.95,2.29-2.98
				c0.71-1.05,1.64-1.95,2.24-3.05c0.59-1.1,0.82-2.38,1.31-3.56c0.48-1.14,0.97-2.28,1.37-3.51c0.38-1.17,1.13-2.27,1.44-3.53
				c0.36-1.45,0.35-2.85,0.89-3.88c0.69-1.34,1.66-2.32,2.55-3.07c1.1-0.92,2.36-1.41,3.57-1.67
				C211.49,83.02,212.32,82.93,213.11,82.93 M182.33,157.56c0.61,0,1.41-0.52,2.54-0.52c0.16,0,0.33,0.01,0.5,0.03
				c1.18,0.16,2.54,0.2,3.79,0.59c1.28,0.4,2.43,1.11,3.35,1.84c1.03,0.83,1.68,1.9,1.64,3.29c1.23,0.04,2.51,0.23,3.74,0.27
				c0.06,0,0.11,0,0.17,0c1.12,0,2.25-0.35,3.37-0.35c0.06,0,0.12,0,0.18,0c1.23,0.04,2.47,0.09,3.7,0.14s2.46,0.29,3.69,0.34
				s2.41,0.1,3.64,0.16c-0.03-0.92-0.1-2.22-0.47-3.54c-0.34-1.21-0.96-2.31-1.87-3.04c-1.49-1.2-1.28-1.83-0.98-3.24
				c0.18-0.83,0.41-1.97,0.52-3.68c0.06-1.01-0.19-2.22-0.29-3.7c-0.1-1.52-0.11-2.64-0.26-3.46c-0.35-1.98-0.86-2.42-1.72-2.42
				c-0.1,0-0.2,0.01-0.3,0.01c-1.74,0.72-1.32,0.85-3.2,2.04c-0.95,0.6-2.04,1.28-3.22,1.96c-1.06,0.62-2.1,1.39-3.22,1.97
				c-1.17,0.61-2.38,1.04-3.46,1.49c-1.38,0.57-2.51,1.16-3.48,1.24c-1.25,1.67-0.5,1.65-2.09,3.53c-0.76,0.9-1.64,2.07-3.04,2.87
				c-1.07,0.6-2.6,0.99-4.13,1.36C181.67,157.37,181.97,157.56,182.33,157.56 M109.95,157.69c-0.02,0-0.03,0-0.05,0
				c-0.05,0-0.1,0.01-0.14,0.07c-0.3,0.5-0.88,1.6-1.41,2.71c-0.52,1.11-1.03,2.21-1.32,2.71c-0.03,0.05,0.12,0.24,0.09,0.28
				c0.13-0.01,0.27-0.01,0.41-0.01c0.3,0,0.62,0.01,0.92,0.01c0.14,0,0.27,0,0.4-0.01c-0.02-0.64,0.49-1.71,1.39-2.51
				c0.78-0.69,1.81-1.22,2.54-1.5c-0.49-0.42-2.14-1.4-2.64-1.83C110.08,157.69,110.01,157.69,109.95,157.69 M213.11,79.73
				c-1.05,0-2.1,0.11-3.13,0.34c-1.93,0.42-3.59,1.22-4.94,2.35c-1.48,1.24-2.57,2.57-3.34,4.05c-0.57,1.11-0.75,2.26-0.91,3.28
				c-0.07,0.46-0.14,0.9-0.24,1.31c-0.09,0.38-0.33,0.87-0.57,1.39c-0.27,0.56-0.57,1.2-0.8,1.92c-0.3,0.95-0.69,1.86-1.1,2.83
				l-0.17,0.41c-0.26,0.63-0.45,1.24-0.62,1.78c-0.18,0.58-0.35,1.12-0.55,1.49c-0.22,0.4-0.59,0.86-0.98,1.35
				c-0.34,0.42-0.73,0.9-1.09,1.43c-0.68,1-1.45,1.94-2.1,2.73c-0.5,0.6-0.87,1.21-1.2,1.76c-0.28,0.47-0.55,0.91-0.8,1.16
				c-0.28,0.28-0.73,0.6-1.21,0.94c-0.5,0.35-1.07,0.75-1.63,1.24c-0.43,0.38-0.82,0.76-1.2,1.13c-0.5,0.48-0.97,0.94-1.45,1.31
				c-0.31,0.24-0.77,0.49-1.25,0.76c-0.57,0.31-1.22,0.67-1.87,1.13c-0.66,0.47-1.21,1-1.69,1.47c-0.4,0.38-0.77,0.75-1.1,0.96
				c-0.42,0.28-0.87,0.53-1.34,0.81c-0.67,0.39-1.36,0.79-2.05,1.28c-1.12,0.8-2.13,1.61-3.1,2.39l-0.09,0.07
				c-0.26,0.2-0.51,0.41-0.76,0.6c-0.8,0.63-1.62,1.28-2.4,2c-0.3,0.28-0.61,0.55-0.92,0.82c-0.71,0.62-1.45,1.27-2.14,2.04
				c-0.75,0.85-1.29,1.74-1.76,2.52c-0.22,0.37-0.43,0.71-0.63,1.01c-0.75,1.08-1.43,2.26-2.16,3.71c-0.13,0.25-0.26,0.51-0.39,0.76
				c-0.48,0.92-1.02,1.97-1.42,3.15c-0.5,1.49-0.87,2.84-1.12,4.13c-0.21,1.04-0.27,2.05-0.34,3.02c-0.02,0.38-0.05,0.77-0.09,1.16
				c-0.07,0.78-0.37,1.55-0.84,2.17c-0.52,0.68-1.32,1.1-1.9,1.32c-0.6,0.23-1.16,0.35-1.64,0.35c-0.15,0-0.3-0.01-0.44-0.03
				c-0.07-0.05-0.18-0.12-0.26-0.17c-0.23-0.15-0.51-0.35-0.84-0.53c-0.82-0.44-1.68-0.9-2.01-1.31c-0.36-0.44-0.56-1.15-0.8-2.04
				l-0.01-0.05c-0.28-1.03-0.39-1.82-0.35-2.58c0.01-0.3,0.02-0.6,0.03-0.9c0.02-0.81,0.05-1.57,0.18-2.13
				c0.19-0.76,0.52-1.55,0.84-2.31c0.1-0.25,0.21-0.49,0.3-0.72c0.07-0.16,0.09-0.18,0.33-0.4c1.7-1.56,2.03-3.39,0.98-5.46
				c-0.4-0.79-1.12-1.38-1.97-1.63c-0.29-0.08-0.58-0.12-0.88-0.12c-0.58,0-1.15,0.16-1.65,0.46c-1.11,0.67-1.89,1.44-2.52,2.06
				c-0.2,0.2-0.4,0.4-0.62,0.59l-0.33,0.3c-0.93,0.84-1.89,1.7-2.7,2.85c-0.86,1.23-1.56,2.55-2.09,3.92
				c-0.58,1.52-0.94,2.94-1.1,4.33l-0.04,0.32c-0.01,0.09-0.02,0.18-0.03,0.27c-0.12-0.38-0.26-0.74-0.42-1.1
				c-0.4-0.91-1.01-1.7-1.59-2.46c-0.32-0.42-0.62-0.82-0.88-1.22c-0.62-0.95-1.27-1.88-1.91-2.78l-0.39-0.55
				c-1.06-1.5-1.77-2.55-2.12-3.11c-0.58-0.92-0.81-1.95-0.7-3.05c0.09-0.88,0.76-1.44,1.15-1.69c0.25-0.16,0.38-0.2,0.41-0.2
				c0.18,0,0.7,0.22,1.09,0.38l0.17,0.07l0.16,0.07c0.29,0.12,0.65,0.27,1.08,0.4c0.53,0.15,1.06,0.23,1.58,0.23
				c1.68,0,3.22-0.82,4.22-2.24c1.49-2.12,1.53-4.5,0.12-6.37c-1.14-1.51-2.85-2.56-5.09-3.12c-1.02-0.26-2.09-0.38-3.16-0.38
				c-0.84,0-1.67,0.08-2.46,0.24c-2.08,0.41-3.68,1.6-4.96,2.56c-1.51,1.13-2.72,2.54-3.58,4.2c-0.85,1.64-1.33,3.41-1.43,5.26
				c-0.05,0.93,0,1.87,0.14,2.82c-0.23-0.44-0.43-0.87-0.6-1.31c-0.26-0.69-0.4-1.51-0.55-2.46l-0.06-0.35
				c-0.07-0.44-0.17-0.85-0.25-1.24c-0.14-0.63-0.26-1.18-0.25-1.61c0.05-1.72,0.04-3.55-0.74-5.35c-0.71-1.64-1.78-3.17-3.1-4.4
				c-1.14-1.06-2.42-1.59-3.45-2.02c-0.27-0.11-0.55-0.23-0.81-0.35c-1.39-0.66-2.77-1.15-4.24-1.5c-0.3-0.07-0.59-0.15-0.87-0.22
				c-0.65-0.17-1.31-0.34-2.13-0.49c-0.2-0.04-0.4-0.06-0.6-0.06c-0.94,0-1.84,0.41-2.45,1.15c-0.74,0.89-0.95,2.12-0.53,3.2
				c0.3,0.77,0.62,1.46,0.91,2.07c-0.88,0.82-1.54,1.84-1.97,3.04c-0.23,0.65-0.4,1.27-0.57,1.87c-0.2,0.75-0.4,1.45-0.66,1.98
				c-0.93,1.84-0.48,3.98,1.16,5.46c0.14,0.13,0.28,0.26,0.41,0.39c0.68,0.65,1.59,1.52,2.87,2c-0.26,1.08-0.25,2.09-0.25,2.91
				c0,0.34,0.01,0.67-0.01,0.94c-0.1,1.41,0.01,2.77,0.34,4.18c0.34,1.49,0.73,3.08,1.35,4.69c0.29,0.74,0.48,1.53,0.64,2.29
				c0.09,0.42,0.05,1.02,0.01,1.71L103.1,151c-0.03,0.42-0.04,0.86-0.05,1.3c-0.02,0.88-0.04,1.71-0.19,2.46
				c-0.15,0.79-0.45,1.65-0.77,2.55c-0.12,0.35-0.25,0.7-0.36,1.04c-0.26,0.77-0.54,1.48-0.84,2.14c-1.1,0.13-2.15,0.35-3.12,0.65
				c-1.35,0.42-2.43,1.15-3.29,1.73c-0.23,0.15-0.46,0.31-0.69,0.46c-0.22,0.14-0.44,0.27-0.66,0.4c-0.96,0.57-2.05,1.22-3.02,2.26
				c-0.99,1.06-1.61,2.23-2.15,3.26c-0.1,0.19-0.2,0.38-0.3,0.57c-0.73,1.35-1.26,2.72-1.62,4.2c-0.15,0.62-0.26,0.85-0.43,1.22
				c-0.24,0.52-0.55,1.17-0.85,2.41c-0.25,1-0.35,1.52-0.44,2.02c-0.09,0.45-0.17,0.87-0.38,1.72c-0.29,1.17-0.34,1.83-0.39,2.37
				c-0.04,0.42-0.06,0.72-0.23,1.42c-0.16,0.65-0.27,0.89-0.44,1.27c-0.23,0.51-0.52,1.16-0.82,2.37c-0.28,1.13-0.35,1.77-0.41,2.28
				c-0.05,0.42-0.09,0.76-0.27,1.49c-0.23,0.94-0.34,1.41-0.45,1.89c-0.11,0.46-0.22,0.92-0.44,1.84c-0.16,0.65-0.27,0.9-0.44,1.28
				c-0.23,0.51-0.51,1.15-0.8,2.35c-0.26,1.07-0.35,1.64-0.43,2.15c-0.07,0.44-0.13,0.81-0.32,1.61c-0.29,1.2-0.34,1.89-0.38,2.44
				c-0.03,0.42-0.05,0.69-0.21,1.36c-0.19,0.79-0.32,1.15-0.46,1.57c-0.17,0.49-0.36,1.04-0.62,2.11c-0.16,0.67-0.27,0.92-0.44,1.31
				c-0.22,0.51-0.49,1.14-0.79,2.34c-0.32,1.29-0.32,2.08-0.33,2.65c0,0.39-0.01,0.61-0.14,1.18c-0.24,0.97-0.34,1.46-0.45,1.95
				c-0.1,0.45-0.19,0.89-0.41,1.78c-0.21,0.84-0.32,1.23-0.46,1.67c-0.14,0.47-0.31,1-0.56,2.02c-0.23,0.95-0.34,1.42-0.45,1.9
				c-0.11,0.46-0.21,0.92-0.44,1.83c-0.16,0.67-0.27,0.92-0.44,1.31c-0.22,0.51-0.49,1.14-0.79,2.34c-0.28,1.13-0.35,1.77-0.41,2.29
				c-0.05,0.42-0.09,0.76-0.27,1.49c-0.22,0.91-0.34,1.37-0.46,1.82c-0.12,0.47-0.24,0.95-0.48,1.9l-0.17,0.69
				c-0.22,0.88-0.44,1.79-0.63,2.73c-0.24,1.17-0.43,2.35-0.61,3.46c-0.13,0.82-0.22,1.61-0.3,2.38c-0.04,0.37-0.08,0.74-0.12,1.1
				c-0.09,0.78-0.13,1.52-0.16,2.23c-0.02,0.42-0.04,0.85-0.07,1.27c-0.08,1.01-0.12,1.52-0.17,2.02c-0.04,0.51-0.08,1.02-0.17,2.03
				c-0.07,0.82-0.14,1.17-0.23,1.62c-0.12,0.56-0.25,1.2-0.35,2.41c-0.1,1.19-0.08,1.83-0.06,2.39c0.01,0.47,0.03,0.85-0.04,1.68
				c-0.07,0.86-0.14,1.25-0.22,1.71c-0.1,0.54-0.21,1.16-0.3,2.33c-0.09,1.09-0.11,1.65-0.12,2.19c-0.02,0.48-0.03,0.94-0.11,1.88
				c-0.08,1.03-0.12,1.54-0.16,2.06c-0.04,0.5-0.07,1-0.15,2c-0.07,0.9-0.08,1.46-0.09,1.92c-0.01,0.58-0.01,0.89-0.18,1.86
				c-0.2,1.11-0.31,1.45-0.51,2.07c-0.15,0.45-0.33,1-0.57,1.89c-0.27,1.01-0.42,1.5-0.58,2.01c-0.16,0.54-0.33,1.1-0.63,2.2
				c-0.08,0.29-0.21,0.64-0.34,1c-0.25,0.68-0.54,1.45-0.7,2.35c-0.17,0.98-0.11,1.87-0.06,2.58c0.03,0.37,0.05,0.72,0.03,0.94
				c-0.02,0.27-0.1,0.63-0.18,1c-0.14,0.68-0.32,1.53-0.32,2.47c0,0.83-0.02,1.21-0.05,1.65c-0.03,0.47-0.06,1-0.06,2.01
				c0,0.94,0.01,1.41,0.01,1.87c0.01,0.45,0.01,0.89,0.01,1.79c0,1.26,0.16,1.98,0.27,2.51c0.08,0.37,0.13,0.58,0.13,1.15
				c0,0.84-0.02,1.25-0.04,1.68c-0.02,0.49-0.05,0.99-0.05,1.99c0,0.58-0.04,0.79-0.13,1.16c-0.11,0.53-0.27,1.25-0.27,2.5
				c0,1.05,0.05,1.61,0.09,2.11c0.04,0.42,0.07,0.78,0.07,1.56c0,0.84-0.02,1.25-0.04,1.69c-0.02,0.49-0.04,0.99-0.04,1.97
				c0,1.09,0.06,1.66,0.12,2.17c0.04,0.42,0.08,0.75,0.08,1.49c0,0.77-0.03,1.13-0.07,1.54c-0.05,0.5-0.1,1.06-0.1,2.12
				c0,0.89-0.01,1.33-0.02,1.78c-0.01,0.47-0.02,0.95-0.02,1.9c0,1.14,0.09,1.77,0.16,2.28c0.06,0.41,0.1,0.7,0.1,1.39
				c0,2.51,0.65,4.87,1.88,6.83c0.51,0.81,0.78,1.21,1.05,1.6c0.24,0.36,0.47,0.69,0.92,1.4c0.57,0.91,0.93,1.36,1.24,1.75
				c0.25,0.32,0.45,0.57,0.83,1.18c0.13,0.2,0.25,0.4,0.37,0.6c0.58,0.96,1.24,2.05,2.26,3.01c1.14,1.08,2.4,1.81,3.69,2.53
				c1.36,0.75,2.71,1.3,4.14,1.66c1.31,0.34,2.67,0.49,4.42,0.49c0.71,0,1.01,0.05,1.42,0.12c0.55,0.09,1.23,0.2,2.46,0.2
				c1.08,0,1.66-0.04,2.16-0.08c0.46-0.03,0.86-0.06,1.71-0.06c1.16,0,1.78-0.08,2.33-0.14c0.43-0.05,0.77-0.09,1.55-0.09
				c0.62,0,0.84,0.05,1.25,0.14c0.55,0.12,1.31,0.29,2.63,0.29c1.28,0,1.98-0.14,2.55-0.25c0.42-0.08,0.67-0.13,1.33-0.13
				c0.93,0,1.39,0.01,1.85,0.02c0.51,0.01,1.01,0.03,2.02,0.03c0.83,0,1.21,0.03,1.65,0.07c0.52,0.05,1.11,0.1,2.22,0.1
				c0.98,0,1.47,0,1.97-0.01c0.48,0,0.95-0.01,1.91-0.01c0.79,0,1.15,0.04,1.59,0.09c0.53,0.06,1.14,0.12,2.28,0.12
				c1.3,0,2.01-0.15,2.58-0.27c0.4-0.08,0.65-0.13,1.29-0.13c0.87,0,1.28,0.02,1.74,0.05c0.5,0.03,1.07,0.06,2.13,0.06
				c0.81,0,1.19,0.04,1.63,0.08c0.53,0.05,1.12,0.11,2.25,0.11c0.9,0,1.34,0.02,1.8,0.04c0.51,0.02,1.04,0.05,2.08,0.05
				c1.11,0,1.69-0.05,2.21-0.09c0.45-0.04,0.83-0.07,1.67-0.07c0.93,0,1.4,0.01,1.87,0.02c0.5,0.01,1,0.02,2.01,0.02
				c0.94,0,1.41,0.01,1.88,0.02c0.5,0.01,1,0.02,2,0.02c1.15,0,1.76-0.07,2.3-0.13c0.44-0.05,0.79-0.09,1.58-0.09
				c1.05,0,1.61-0.03,2.11-0.06c0.46-0.02,0.89-0.05,1.77-0.05c0.59,0,0.81,0.05,1.2,0.14c0.56,0.13,1.34,0.32,2.69,0.32
				c1.13,0,1.73-0.06,2.25-0.11c0.44-0.04,0.81-0.08,1.63-0.08c1.17,0,1.82-0.08,2.34-0.15c0.43-0.05,0.77-0.1,1.53-0.1
				c1.02,0,1.53-0.02,2.03-0.03c0.46-0.01,0.92-0.03,1.84-0.03c0.68,0,0.95,0.05,1.37,0.12c0.56,0.1,1.25,0.23,2.51,0.23
				c1.18,0,1.83-0.09,2.35-0.15c0.43-0.06,0.76-0.1,1.52-0.1c0.71,0,1.01,0.05,1.43,0.12c0.54,0.09,1.22,0.2,2.45,0.2
				c1.01,0,1.51-0.01,2.02-0.02c0.46-0.01,0.93-0.02,1.86-0.02c1.08,0,1.66-0.04,2.17-0.08c0.46-0.03,0.85-0.06,1.7-0.06
				c1,0,1.5-0.01,2-0.02c0.47-0.01,0.94-0.02,1.88-0.02c0.75,0,1.07,0.04,1.51,0.1c0.53,0.07,1.18,0.16,2.36,0.16
				c1.31,0,2.06-0.16,2.61-0.28c0.4-0.09,0.64-0.14,1.27-0.14c0.72,0,1.02,0.05,1.43,0.11c0.54,0.09,1.22,0.19,2.44,0.19
				c1.19,0,1.84-0.09,2.37-0.16c0.44-0.06,0.75-0.1,1.5-0.1c0.62,0,0.84,0.05,1.24,0.14c0.55,0.12,1.31,0.29,2.64,0.29
				c1.07,0,1.63-0.03,2.13-0.07c0.47-0.03,0.87-0.05,1.74-0.05c1.14,0,1.74-0.06,2.27-0.12c0.45-0.05,0.8-0.08,1.6-0.08
				c1.14,0,1.75-0.07,2.28-0.12c0.45-0.05,0.8-0.09,1.6-0.09h1.94h1.93c0.95,0,1.42,0.01,1.9,0.01c0.5,0.01,0.99,0.01,1.98,0.01
				c0.94,0,1.41,0.01,1.88,0.02c0.5,0.01,1,0.02,2.01,0.02c0.75,0,1.07,0.04,1.51,0.1c0.53,0.07,1.19,0.16,2.37,0.16
				c1.48,0,2.99-0.19,4.47-0.58c1.48-0.38,2.89-0.94,4.19-1.66c1.18-0.65,2.53-1.44,3.72-2.57c0.98-0.92,1.56-2.01,2.03-2.88
				c0.17-0.31,0.33-0.61,0.48-0.85c0.32-0.51,0.48-0.68,0.74-0.96c0.37-0.4,0.82-0.89,1.46-1.9c0.42-0.67,0.63-0.96,0.88-1.3
				c0.28-0.38,0.59-0.82,1.13-1.67c1.27-2.03,1.98-4.5,1.98-6.95c0-1.25-0.15-1.97-0.27-2.5c-0.08-0.38-0.13-0.59-0.13-1.16
				c0-0.62,0.04-0.86,0.12-1.25c0.1-0.54,0.22-1.2,0.22-2.41c0-1.03-0.04-1.58-0.07-2.06c-0.03-0.43-0.06-0.8-0.06-1.6
				c0-0.7,0.04-0.99,0.1-1.4c0.07-0.5,0.16-1.13,0.16-2.27c0-1.08-0.06-1.65-0.11-2.16c-0.04-0.42-0.08-0.75-0.08-1.5
				c0-0.93,0-1.39-0.01-1.86c0-0.45-0.01-0.9-0.01-1.81c0-1-0.03-1.53-0.05-2c-0.02-0.43-0.04-0.83-0.04-1.67
				c0-0.95-0.01-1.43-0.02-1.91c-0.01-0.44-0.02-0.88-0.02-1.76c0-0.99-0.02-1.5-0.05-1.99c-0.02-0.43-0.04-0.84-0.04-1.68
				c0-0.99-0.02-1.49-0.04-1.98c-0.02-0.44-0.04-0.85-0.04-1.69c0-0.7,0.04-0.99,0.1-1.4c0.07-0.51,0.16-1.13,0.16-2.27
				c0-0.95-0.01-2.2-0.13-3.5c-0.11-1.25-0.26-2.38-0.45-3.47c-0.16-0.88-0.42-1.66-0.65-2.35c-0.12-0.36-0.23-0.7-0.32-1.01
				c-0.21-0.79-0.25-1.14-0.29-1.63c-0.06-0.61-0.13-1.38-0.49-2.7c-0.33-1.22-0.66-1.93-0.9-2.44c-0.22-0.46-0.32-0.68-0.45-1.44
				c-0.14-0.8-0.13-1.05-0.11-1.55c0.02-0.49,0.05-1.15-0.04-2.22c-0.1-1.21-0.23-1.84-0.34-2.4c-0.09-0.45-0.17-0.81-0.23-1.63
				c-0.07-0.91-0.08-1.33-0.09-1.83c-0.01-0.53-0.02-1.12-0.11-2.24c-0.09-1.14-0.19-1.74-0.28-2.28c-0.08-0.47-0.14-0.88-0.21-1.77
				c-0.08-1.02-0.13-1.53-0.17-2.05c-0.04-0.5-0.09-1-0.17-2.01c-0.08-0.99-0.11-1.48-0.14-1.98c-0.03-0.52-0.07-1.05-0.15-2.09
				c-0.07-0.81-0.05-1.17-0.03-1.63c0.03-0.58,0.06-1.23-0.04-2.45c-0.03-0.41-0.05-0.83-0.08-1.24c-0.04-0.73-0.08-1.48-0.17-2.27
				c-0.1-0.83-0.3-1.57-0.47-2.23c-0.12-0.44-0.23-0.85-0.28-1.21c-0.15-0.95-0.34-1.87-0.53-2.77l-0.14-0.68
				c-0.08-0.38-0.13-0.81-0.19-1.26c-0.08-0.67-0.18-1.43-0.37-2.21c-0.25-1.01-0.4-1.51-0.54-2c-0.13-0.43-0.25-0.84-0.46-1.7
				s-0.29-1.28-0.38-1.72c-0.1-0.5-0.2-1.02-0.44-2.02c-0.23-0.94-0.35-1.41-0.47-1.88c-0.12-0.46-0.23-0.92-0.46-1.83
				c-0.19-0.77-0.24-1.12-0.3-1.57c-0.07-0.52-0.16-1.11-0.42-2.2l-0.45-1.86l-0.45-1.86c-0.32-1.3-0.68-2-0.95-2.52
				c-0.18-0.36-0.28-0.53-0.41-1.09c-0.2-0.82-0.26-1.2-0.34-1.65c-0.08-0.5-0.18-1.06-0.43-2.1c-0.23-0.92-0.33-1.38-0.44-1.84
				c-0.11-0.47-0.22-0.94-0.45-1.88c-0.19-0.78-0.24-1.15-0.31-1.58c-0.07-0.52-0.16-1.1-0.42-2.18c-0.27-1.11-0.48-1.68-0.67-2.19
				c-0.15-0.41-0.27-0.73-0.45-1.48c-0.19-0.76-0.23-1.1-0.29-1.54c-0.07-0.53-0.15-1.13-0.42-2.23c-0.28-1.14-0.52-1.75-0.72-2.25
				c-0.16-0.4-0.28-0.7-0.45-1.41c-0.2-0.83-0.27-1.22-0.35-1.68c-0.09-0.49-0.19-1.05-0.44-2.07c-0.28-1.14-0.52-1.75-0.72-2.25
				c-0.16-0.4-0.28-0.7-0.45-1.41c-0.21-0.87-0.3-1.3-0.4-1.76c-0.1-0.49-0.21-1-0.45-1.98c-0.21-0.85-0.29-1.27-0.37-1.71
				c-0.09-0.48-0.19-1.02-0.44-2.04c-0.16-0.64-0.17-0.91-0.2-1.32c-0.03-0.57-0.07-1.27-0.37-2.49c-0.3-1.23-0.6-1.87-0.83-2.39
				c-0.17-0.38-0.28-0.61-0.44-1.25c-0.35-1.43-0.92-2.82-1.79-4.38c-0.72-1.3-1.63-2.48-2.87-3.74c-0.72-0.74-1.48-1.39-2.26-1.97
				c-0.07-1.07-0.23-2.3-0.71-3.51c-0.6-1.53-1.6-3.06-2.89-4.42c-1.36-1.44-2.76-2.38-4.24-2.87c-0.02-0.1-0.03-0.23-0.04-0.37
				l-0.02-0.24c-0.09-0.97-0.17-1.98-0.07-3.02l0.07-0.68c0.09-0.96,0.19-1.95,0.37-2.9c0.07-0.38,0.27-0.89,0.47-1.43
				c0.23-0.62,0.5-1.32,0.69-2.09c0.18-0.75,0.28-1.48,0.36-2.12c0.08-0.59,0.15-1.14,0.27-1.56c0.17-0.57,0.42-1.16,0.69-1.79
				c0.23-0.53,0.46-1.08,0.67-1.66c0.47-1.36,0.9-2.47,1.29-3.32c0.69-1.53,1.17-3.06,1.42-4.53c0.21-1.23,0.33-2.62,0.37-4.38
				c0.03-1.05-0.08-2.05-0.18-2.94c-0.04-0.42-0.09-0.85-0.12-1.27c-0.03-0.46-0.02-0.97-0.01-1.51c0.01-0.8,0.03-1.7-0.09-2.62
				c-0.13-0.99-0.34-1.87-0.52-2.66c-0.11-0.48-0.22-0.94-0.28-1.31c-0.26-1.58-0.4-2.85-0.47-3.65c-0.08-0.91-0.28-1.78-0.45-2.54
				c-0.12-0.54-0.24-1.05-0.29-1.49c-0.13-1.02-0.01-1.83,0.09-2.27c0.2-0.16,0.65-0.45,1.39-0.74c0.26-0.1,0.52-0.19,0.78-0.29
				c1.28-0.47,2.61-0.96,3.72-1.72c1.56-1.06,2.61-2.51,3.21-4.45c0.44-1.41,0.63-2.99,0.56-4.56c-0.19-4.29-1.54-6.47-4-6.47
				c-0.15,0-0.31,0.01-0.46,0.03c-0.18,0.02-0.48,0.02-0.85,0.04c-0.76,0.03-1.8,0.06-2.86,0.15c-0.84,0.07-1.65,0.17-2.33,0.26
				c-0.45-0.62-1.13-1.34-2.19-1.87c-0.97-0.49-2.91-1.01-4.83-1.29C214.46,79.78,213.79,79.73,213.11,79.73L213.11,79.73z
				 M192.78,151.78c0.59-0.2,1.16-0.45,1.75-0.71c0.28-0.12,0.56-0.24,0.86-0.37c0.26-0.11,0.52-0.21,0.79-0.32
				c0.89-0.36,1.91-0.76,2.93-1.29c0.79-0.41,1.5-0.87,2.18-1.31c0.41-0.27,0.8-0.52,1.18-0.74c1.18-0.69,2.28-1.38,3.31-2.02
				c0.18-0.11,0.35-0.22,0.5-0.32c0.01,0.1,0.01,0.2,0.02,0.3c0.02,0.42,0.05,0.87,0.08,1.36c0.04,0.65,0.11,1.24,0.17,1.76
				c0.07,0.61,0.14,1.19,0.12,1.52c-0.1,1.54-0.31,2.55-0.46,3.22l-0.03,0.16c-0.42,1.94-0.6,4.03,2.13,6.23
				c0.2,0.16,0.38,0.41,0.54,0.72c-0.4-0.03-0.83-0.08-1.28-0.13c-0.67-0.08-1.37-0.16-2.12-0.19c-1.24-0.05-2.47-0.09-3.71-0.14
				c-0.1,0-0.2-0.01-0.29-0.01c-0.8,0-1.53,0.11-2.17,0.21c-0.45,0.07-0.88,0.14-1.2,0.14h-0.06c-0.4-0.01-0.82-0.05-1.26-0.09
				c-0.48-1.04-1.22-1.98-2.22-2.78c-1.18-0.95-2.42-1.67-3.68-2.15l0.23-0.27C192.13,153.3,192.5,152.52,192.78,151.78
				L192.78,151.78z M134,159.31c0.35-0.29,0.7-0.61,1.04-0.96c1.2-1.23,2.08-2.56,2.6-3.96c0.35-0.92,0.6-1.8,0.77-2.63
				c0.24,0.72,0.55,1.36,0.81,1.91c0.12,0.26,0.25,0.52,0.36,0.78c0.11,0.27,0.22,0.54,0.32,0.82c0.37,0.99,0.83,2.21,1.73,3.31
				c0.15,0.18,0.31,0.36,0.47,0.52c-0.36,0.01-0.71,0.02-1.07,0.02c-0.66,0.01-1.33,0.04-2,0.07c-0.57,0.03-1.15,0.05-1.73,0.06
				l-1.51,0.03C135.2,159.29,134.6,159.3,134,159.31L134,159.31z"/>
		</g>
	</g>
	<g>
		<path class="st3" d="M29.47,138.35c0.09-0.48,0.31-0.79,0.66-0.91c0.35-0.12,0.76-0.16,1.24-0.11s0.99,0.13,1.54,0.25
			s1.07,0.2,1.57,0.24c0.52,0.04,0.98,0.05,1.39,0.02c0.4-0.02,0.79-0.06,1.17-0.1c0.38-0.04,0.77-0.06,1.18-0.06
			c0.41,0.01,0.89,0.06,1.43,0.17c0.34,0.07,0.61,0.27,0.81,0.62c0.2,0.35,0.26,0.71,0.19,1.07c-0.1,0.54-0.27,0.99-0.48,1.36
			c-0.22,0.37-0.47,0.73-0.76,1.07c-0.29,0.34-0.59,0.68-0.9,1.02c-0.31,0.34-0.64,0.74-0.96,1.21c-0.15,0.32-0.27,0.66-0.37,1.01
			c-0.1,0.35-0.2,0.67-0.32,0.95c-0.11,0.29-0.26,0.52-0.44,0.69s-0.43,0.23-0.74,0.17c-0.45-0.09-0.82-0.26-1.09-0.52
			c-0.27-0.26-0.52-0.56-0.73-0.89c-0.21-0.34-0.42-0.7-0.61-1.09c-0.19-0.39-0.42-0.77-0.7-1.15c-0.31-0.5-0.67-0.94-1.07-1.31
			s-0.76-0.74-1.09-1.09c-0.33-0.36-0.59-0.74-0.77-1.14C29.39,139.4,29.36,138.91,29.47,138.35z"/>
		<path class="st3" d="M40.25,90.21c0.21-0.31,0.4-0.54,0.57-0.69s0.4-0.12,0.69,0.07c0.46,0.31,0.7,0.68,0.72,1.11
			s-0.03,0.87-0.15,1.31c-0.12,0.44-0.22,0.85-0.29,1.21c-0.07,0.37,0.01,0.63,0.25,0.79c0.19,0.13,0.43,0.24,0.72,0.33
			c0.29,0.09,0.57,0.16,0.84,0.23c0.27,0.06,0.52,0.09,0.73,0.07c0.22-0.01,0.35-0.05,0.4-0.12c0.28-0.05,0.56-0.08,0.83-0.07
			c0.25-0.01,0.49,0,0.74,0.03c0.24,0.03,0.46,0.1,0.65,0.23c0.07,0.05,0.29,0.12,0.67,0.21c0.37,0.09,0.83,0.2,1.36,0.31
			s1.11,0.23,1.73,0.35c0.62,0.12,1.2,0.2,1.75,0.23c0.55,0.04,1.03,0.04,1.44,0s0.67-0.14,0.78-0.31c0.1-0.14,0.08-0.37-0.06-0.69
			c-0.14-0.32-0.31-0.63-0.51-0.95c-0.24-0.37-0.53-0.77-0.86-1.21c-0.13-0.33-0.39-0.88-0.79-1.66c-0.4-0.77-0.86-1.58-1.38-2.42
			c-0.52-0.83-1.03-1.61-1.54-2.34c-0.51-0.72-0.94-1.21-1.3-1.45c-0.26-0.18-0.49-0.22-0.68-0.12s-0.38,0.19-0.57,0.27
			c-0.16,0.14-0.35,0.24-0.58,0.32c-0.22,0.08-0.46,0.03-0.7-0.13c-0.24-0.16-0.38-0.36-0.43-0.6s-0.03-0.48,0.04-0.73
			c0.08-0.24,0.17-0.46,0.28-0.65s0.19-0.32,0.24-0.39L47,81.02c0.05-0.07,0.11-0.14,0.18-0.19c0.07-0.06,0.14-0.1,0.19-0.13
			c0.07-0.06,0.14-0.1,0.19-0.13c0.35-0.53,0.6-0.93,0.75-1.19c0.15-0.27,0.25-0.49,0.32-0.67s0.14-0.36,0.21-0.54
			s0.22-0.45,0.47-0.81l0.57-0.61l0.38-0.79c0.19-0.29,0.45-0.48,0.76-0.59c0.31-0.1,0.67-0.02,1.08,0.26
			c0.26,0.18,0.44,0.37,0.53,0.57s0.12,0.4,0.1,0.59c-0.02,0.19-0.08,0.4-0.16,0.62c-0.08,0.23-0.16,0.45-0.24,0.67
			c-0.27,0.62-0.54,1.26-0.79,1.92c-0.25,0.66-0.21,1.29,0.13,1.86l0.67,0.71c0.04,0.1,0.11,0.28,0.21,0.54s0.23,0.54,0.37,0.85
			s0.31,0.62,0.5,0.93c0.19,0.32,0.38,0.59,0.57,0.83c0.1,0.17,0.17,0.34,0.23,0.52c0.07,0.15,0.13,0.31,0.18,0.46
			s0.09,0.29,0.11,0.42c0.26,0.39,0.55,0.83,0.86,1.33s0.54,1.03,0.69,1.58c1.01,1.55,1.98,2.94,2.89,4.18
			c0.38,0.53,0.76,1.07,1.16,1.62s0.77,1.04,1.12,1.48s0.67,0.82,0.96,1.14s0.52,0.53,0.69,0.65l1.01,0.68
			c0.36,0.24,0.64,0.49,0.83,0.74c0.2,0.25,0.12,0.63-0.21,1.14c-0.13,0.19-0.27,0.38-0.44,0.57c-0.16,0.19-0.38,0.33-0.65,0.42
			c-0.35,0.22-0.64,0.28-0.85,0.18c-0.22-0.09-0.44-0.12-0.69-0.07c-0.43,0.02-0.77-0.05-1.01-0.21c-0.3-0.13-0.56-0.24-0.8-0.33
			c-0.24-0.09-0.49-0.14-0.76-0.15c-0.17-0.11-0.43-0.2-0.8-0.25c-0.36-0.05-0.62-0.13-0.76-0.23c-0.63-0.04-1.21-0.13-1.74-0.25
			c-0.52-0.13-1.06-0.25-1.6-0.37c-0.54-0.12-1.12-0.24-1.72-0.35c-0.6-0.11-1.29-0.16-2.06-0.16c-0.27-0.11-0.55-0.21-0.84-0.3
			c-0.22-0.08-0.45-0.17-0.69-0.25c-0.24-0.09-0.43-0.15-0.58-0.18l-1.12-0.28c-0.18-0.05-0.46-0.07-0.84-0.07s-0.77,0.01-1.17,0.03
			c-0.45,0.05-0.95,0.09-1.5,0.14c-0.99-0.49-1.99-0.85-2.98-1.09c-0.99-0.23-1.83-0.18-2.51,0.17c-1.43,0.78-2.37,1.02-2.83,0.71
			c-0.38-0.26-0.35-0.72,0.1-1.4l0.46-0.68c0.23-0.34,0.44-0.78,0.64-1.34c0.1-0.31,0.21-0.62,0.32-0.94l0.87-1.3l0.78-0.78
			l0.36-0.7c0.09-0.18,0.17-0.36,0.25-0.53s0.15-0.31,0.22-0.4L40.25,90.21z"/>
		<path class="st3" d="M65.94,58.42c0.47-0.43,0.91-0.65,1.33-0.66s0.82,0.1,1.21,0.33c0.39,0.23,0.77,0.52,1.14,0.87
			c0.37,0.34,0.74,0.67,1.09,0.97l1.05,1.15c0.34,0.12,0.79,0.28,1.36,0.49c0.56,0.21,1.03,0.52,1.4,0.92l0.73,0.8
			c0.06,0.06,0.29,0.21,0.69,0.43s0.84,0.46,1.33,0.72c0.49,0.26,0.95,0.51,1.38,0.77c0.43,0.26,0.7,0.45,0.82,0.57
			c0.37,0.41,0.92,0.9,1.64,1.47c0.72,0.58,1.46,1.11,2.21,1.59c0.75,0.48,1.46,0.86,2.11,1.12c0.65,0.27,1.11,0.28,1.36,0.05
			c0.3-0.27,0.56-0.46,0.79-0.55c0.23-0.09,0.41-0.2,0.54-0.31c0.06-0.06,0.19-0.15,0.37-0.27c0.18-0.12,0.39-0.24,0.63-0.34
			s0.48-0.15,0.71-0.15c0.24,0,0.44,0.1,0.62,0.29c0.39,0.43,0.51,0.86,0.37,1.31c-0.14,0.44-0.42,0.85-0.82,1.22l-2.23,1.86
			l-0.9,0.82l-1.6,1.46L84.57,76l-0.81,0.91c-0.13,0.12-0.35,0.3-0.65,0.54c-0.31,0.24-0.53,0.29-0.67,0.14
			c-0.27-0.3-0.36-0.67-0.27-1.1c0.09-0.44,0.26-0.88,0.51-1.34c0.2-0.38,0.35-0.73,0.43-1.04c0.09-0.31-0.01-0.62-0.28-0.92
			c-0.06-0.06-0.23-0.2-0.52-0.41c-0.29-0.21-0.6-0.42-0.94-0.64c-0.34-0.22-0.66-0.4-0.96-0.54c-0.3-0.14-0.49-0.17-0.58-0.09
			c-0.26-0.15-0.52-0.35-0.79-0.57c-0.27-0.23-0.52-0.42-0.76-0.57c-0.24-0.15-0.47-0.23-0.68-0.23s-0.42,0.13-0.62,0.39l-1.09,0.99
			c-0.06,0.06-0.19,0.17-0.37,0.34s-0.36,0.35-0.53,0.54c-0.17,0.2-0.34,0.39-0.49,0.59s-0.23,0.36-0.24,0.48
			c-0.16,0.38-0.1,0.67,0.18,0.87c0.28,0.2,0.54,0.43,0.8,0.71c0.01,0.14,0.07,0.4,0.16,0.76c0.1,0.36,0.21,0.74,0.35,1.12
			c0.14,0.39,0.27,0.73,0.4,1.05c0.13,0.31,0.22,0.5,0.28,0.57c0.23,0.26,0.47,0.38,0.71,0.35c0.24-0.02,0.48-0.06,0.74-0.12
			c0.26-0.06,0.54-0.07,0.83-0.02c0.29,0.04,0.63,0.27,1,0.67c0.12,0.13,0.17,0.27,0.15,0.42s-0.07,0.3-0.16,0.44
			c-0.09,0.14-0.19,0.27-0.29,0.39c-0.11,0.12-0.19,0.21-0.26,0.26c0.06,0.06,0.08,0.13,0.05,0.19c-0.02,0.06-0.07,0.12-0.15,0.19
			s-0.23,0.11-0.45,0.12c-0.09,0.08-0.2,0.18-0.34,0.31S77.97,82,77.8,82.11l-0.64,0.46c-0.28,0.25-0.47,0.49-0.58,0.71
			s-0.31,0.46-0.58,0.71c-0.3,0.27-0.5,0.48-0.6,0.63c-0.1,0.15-0.16,0.26-0.18,0.34c-0.02,0.08-0.04,0.14-0.04,0.18
			s-0.03,0.09-0.1,0.15c-0.11,0.1-0.3,0.26-0.59,0.48c-0.29,0.22-0.59,0.43-0.92,0.63s-0.64,0.34-0.93,0.43
			c-0.29,0.09-0.49,0.07-0.61-0.06c-0.37-0.41-0.56-0.86-0.57-1.36s0.19-0.94,0.6-1.31l0.46-0.72c0.04-0.04,0.09-0.15,0.14-0.33
			s0.09-0.38,0.12-0.61c0.03-0.22,0.06-0.46,0.09-0.7s0.06-0.44,0.09-0.58c-0.36-0.65-0.66-1.44-0.9-2.37s-0.49-1.81-0.74-2.64
			c-0.2-0.48-0.38-1.01-0.54-1.59c-0.16-0.58-0.28-1.09-0.36-1.52c-0.16-0.6-0.34-1.16-0.54-1.68c-0.2-0.52-0.42-1.04-0.65-1.55
			s-0.46-1.04-0.68-1.58s-0.43-1.11-0.63-1.72c-0.14-0.46-0.34-0.91-0.6-1.36s-0.53-0.91-0.81-1.37c-0.29-0.46-0.55-0.95-0.81-1.46
			c-0.25-0.51-0.47-1.06-0.65-1.64c0.03-0.22,0.05-0.48,0.07-0.76c0.01-0.29,0.1-0.62,0.26-1L65.94,58.42z M70.91,64.63
			c-0.15,0.14-0.22,0.32-0.23,0.56c0,0.24,0.03,0.47,0.09,0.71s0.14,0.46,0.25,0.66c0.1,0.2,0.18,0.33,0.24,0.39
			c0.18,0.19,0.31,0.34,0.39,0.43c0.09,0.1,0.15,0.19,0.2,0.29c0.05,0.09,0.11,0.22,0.2,0.38c0.08,0.16,0.22,0.4,0.41,0.74
			l0.23,0.26c0.12,0.13,0.33,0.16,0.62,0.11c0.3-0.06,0.52-0.15,0.67-0.29c0.06-0.06,0.17-0.15,0.3-0.28
			c0.14-0.13,0.27-0.26,0.39-0.41s0.2-0.3,0.25-0.46c0.05-0.16,0.01-0.31-0.1-0.43c-0.25-0.28-0.52-0.42-0.81-0.44
			c-0.29-0.01-0.5-0.09-0.63-0.24l-1.29-1.41c-0.12-0.13-0.32-0.27-0.61-0.44C71.21,64.57,71.02,64.53,70.91,64.63z"/>
		<path class="st3" d="M88.88,42.75c0.34-0.17,0.63-0.29,0.88-0.38s0.52-0.09,0.81-0.01c0.44,0.04,0.75,0.13,0.92,0.25
			s0.41,0.23,0.71,0.31c0.44,0.43,0.86,0.62,1.28,0.55c0.42-0.06,0.85-0.04,1.29,0.07s0.9,0.28,1.38,0.51
			c0.48,0.23,0.98,0.48,1.5,0.74c0.51,0.26,1.01,0.52,1.49,0.77c0.48,0.25,0.92,0.44,1.33,0.56c0.61,0.25,1.16,0.55,1.67,0.9
			c0.51,0.35,1.14,0.53,1.89,0.55c0.22,0.05,0.66,0.21,1.33,0.46s1.4,0.51,2.19,0.79c0.79,0.27,1.54,0.5,2.23,0.67
			c0.7,0.17,1.19,0.19,1.47,0.05c0.18-0.09,0.29-0.19,0.31-0.3c0.03-0.11,0.01-0.22-0.05-0.34c-0.06-0.12-0.13-0.22-0.23-0.32
			c-0.1-0.1-0.16-0.19-0.2-0.26l-1.43-2.92c-0.11-0.23-0.18-0.54-0.19-0.92c-0.01-0.38-0.12-0.79-0.34-1.23l-1.6-3.27
			c-0.14-0.03-0.35-0.09-0.62-0.18c-0.27-0.09-0.54-0.19-0.82-0.3s-0.54-0.2-0.78-0.27c-0.25-0.07-0.41-0.09-0.48-0.05l-0.74,0.36
			c-0.16,0.08-0.36,0.12-0.61,0.13c-0.25,0.01-0.5,0-0.75-0.05c-0.25-0.04-0.46-0.09-0.63-0.15s-0.27-0.12-0.3-0.17l-0.59-1.21
			c-0.13-0.26-0.17-0.5-0.13-0.71s0.14-0.4,0.29-0.55c0.15-0.15,0.33-0.29,0.53-0.4s0.38-0.21,0.54-0.29l0.74-0.36
			c0.18-0.09,0.43-0.19,0.75-0.29c0.32-0.11,0.65-0.22,0.99-0.34s0.67-0.23,0.99-0.34s0.59-0.22,0.83-0.33l5.42-2.65
			c0.52-0.25,1.06-0.38,1.63-0.36c0.57,0.01,0.99,0.29,1.25,0.84c0.1,0.21,0.17,0.39,0.22,0.54c0.04,0.16,0.04,0.39,0,0.7
			c-0.42,0.66-0.92,1.1-1.5,1.33s-1.13,0.48-1.65,0.73l-0.94,0.84l-0.66,0.32c-0.21,0.1-0.31,0.34-0.31,0.71s0.09,0.72,0.25,1.06
			l0.74,1.52l0.15,0.31l1.12,2.3l0.89,1.83c0.08,0.16,0.24,0.36,0.5,0.62s0.42,0.47,0.5,0.63l1.07,2.18l1.18,4.1
			c0.08,0.16,0.21,0.35,0.4,0.58c0.19,0.23,0.4,0.46,0.62,0.68c0.22,0.23,0.43,0.45,0.61,0.67c0.19,0.22,0.32,0.4,0.39,0.56
			c0.05,0.1,0.13,0.29,0.25,0.55c0.11,0.27,0.21,0.54,0.3,0.82c0.09,0.28,0.13,0.54,0.14,0.78c0,0.24-0.07,0.4-0.23,0.47
			c-0.1,0.05-0.28,0.14-0.53,0.26s-0.51,0.23-0.78,0.33c-0.27,0.1-0.52,0.17-0.74,0.22c-0.22,0.04-0.35,0.03-0.39-0.05
			c-0.54-0.19-1.06-0.48-1.56-0.88s-1.01-0.67-1.52-0.8c-0.48-0.25-0.91-0.44-1.29-0.57c-0.39-0.13-0.76-0.26-1.12-0.37
			s-0.72-0.25-1.06-0.4c-0.35-0.15-0.69-0.37-1.02-0.66c-0.6-0.51-1.35-0.92-2.24-1.22c-0.89-0.31-1.81-0.6-2.77-0.87
			c-0.95-0.27-1.9-0.56-2.83-0.86c-0.94-0.3-1.76-0.68-2.46-1.14c-0.04-0.08-0.14-0.18-0.3-0.31s-0.34-0.24-0.55-0.33
			c-0.21-0.09-0.43-0.16-0.66-0.21s-0.44-0.03-0.62,0.06c-0.49,0.24-0.55,0.75-0.17,1.53l1.43,2.92l0.74,1.52l1.38,2.03
			c0.25,0.52,0.41,0.89,0.46,1.1s0.18,0.52,0.37,0.91c0.24,0.49,0.57,0.79,0.99,0.89s0.88,0.11,1.39,0.02
			c0.51-0.08,1.03-0.22,1.56-0.4c0.54-0.18,1.05-0.33,1.55-0.44c0.49-0.11,0.94-0.13,1.35-0.06c0.41,0.08,0.71,0.32,0.91,0.74
			c0.1,0.21,0.1,0.36-0.01,0.47c-0.11,0.1-0.26,0.2-0.44,0.29l-4.4,2.14l-2.32,1.57c-0.3-0.08-0.61-0.06-0.93,0.07
			s-0.58,0.23-0.76,0.32l-0.74,0.36c-0.55,0.27-0.98,0.39-1.31,0.38c-0.33-0.02-0.69,0.07-1.08,0.26l-1.4,0.69l-0.1,0.58l-0.78,0.38
			c-0.05-0.1-0.14-0.28-0.28-0.52c-0.13-0.24-0.26-0.48-0.37-0.71c-0.17-0.27-0.32-0.57-0.48-0.88c-0.1-0.21-0.07-0.45,0.08-0.72
			s0.33-0.45,0.51-0.54c0.42-0.2,0.69-0.34,0.84-0.41c0.14-0.07,0.23-0.12,0.26-0.15c0.03-0.03,0.06-0.05,0.07-0.06
			c0.01-0.01,0.09-0.05,0.22-0.13c0.14-0.08,0.38-0.21,0.73-0.38c0.35-0.17,0.89-0.43,1.62-0.79c0.18-0.09,0.31-0.22,0.38-0.4
			s0.11-0.37,0.11-0.56c0-0.19-0.03-0.38-0.08-0.56c-0.06-0.18-0.1-0.31-0.14-0.39c-0.1-0.08-0.19-0.16-0.27-0.25
			c-0.15-0.12-0.28-0.28-0.38-0.49c-0.19-0.39-0.36-0.7-0.52-0.93c-0.16-0.23-0.32-0.42-0.47-0.57s-0.28-0.29-0.39-0.41
			s-0.21-0.29-0.32-0.5c-0.09-0.18-0.18-0.41-0.27-0.69s-0.16-0.53-0.21-0.77c-0.05-0.3-0.1-0.6-0.15-0.89l-1.27-2.61
			c-0.08-0.16-0.18-0.33-0.33-0.52c-0.14-0.19-0.37-0.34-0.67-0.44c-0.15-0.31-0.18-0.54-0.09-0.68c0.05-0.09,0.12-0.15,0.2-0.19
			c-0.08-0.09-0.2-0.21-0.37-0.35c-0.17-0.14-0.34-0.28-0.52-0.42s-0.34-0.27-0.48-0.39c-0.14-0.12-0.23-0.23-0.27-0.3
			c-0.27-0.55-0.68-0.86-1.23-0.94c-0.56-0.08-1.15-0.13-1.78-0.14s-1.24-0.09-1.82-0.22s-1.03-0.53-1.35-1.18
			c-0.02-0.31-0.03-0.59-0.03-0.85c0.01-0.23,0.04-0.46,0.08-0.67s0.15-0.36,0.33-0.45L88.88,42.75z"/>
		<path class="st3" d="M141.02,25.36c1.48-0.23,2.97-0.21,4.44,0.05c1.48,0.27,2.83,0.77,4.07,1.49c1.24,0.73,2.29,1.69,3.15,2.89
			c0.86,1.2,1.41,2.6,1.66,4.2l-0.02,2.11l0.44,2.83c0.03,0.2-0.01,0.48-0.13,0.85c-0.12,0.37-0.16,0.67-0.12,0.9
			c-0.11,0.4-0.21,0.79-0.3,1.19c-0.09,0.34-0.2,0.7-0.31,1.08c-0.12,0.38-0.26,0.75-0.44,1.1c-0.08,0.25-0.23,0.53-0.46,0.86
			c-0.23,0.33-0.5,0.65-0.82,0.96c-0.32,0.31-0.65,0.58-0.99,0.81c-0.34,0.23-0.69,0.37-1.03,0.42l-0.81,0.13
			c-0.31,0.05-0.62,0.14-0.92,0.28c-0.3,0.13-0.59,0.28-0.88,0.42c-0.28,0.15-0.53,0.28-0.75,0.4c-0.22,0.12-0.37,0.19-0.45,0.2
			l-1.16,0.18c-0.49,0.08-0.9,0.21-1.23,0.39c-0.34,0.18-0.63,0.3-0.89,0.34l-1.54,0.24l-3.69,0.58l-0.73,0.11
			c-0.16,0.11-0.3,0.22-0.43,0.33c-0.26,0.19-0.52,0.3-0.78,0.34l-1.27-0.28l-1.2,0.19l-1.08,0.65c-0.2,0.03-0.48-0.02-0.84-0.15
			s-0.65-0.29-0.88-0.46c-0.11,0.02-0.29,0.04-0.52,0.06c-0.23,0.02-0.46,0.01-0.68-0.02c-0.23-0.04-0.44-0.12-0.63-0.25
			c-0.2-0.13-0.32-0.34-0.36-0.62c-0.04-0.23,0.03-0.46,0.2-0.69s0.37-0.44,0.61-0.62c0.29-0.22,0.6-0.45,0.95-0.67l1.2-0.19
			l1.94-0.79c0.24,0.05,0.47,0.1,0.68,0.16c0.39,0.09,0.72,0.11,0.98,0.07c0.29-0.04,0.49-0.17,0.62-0.38
			c0.13-0.21,0.21-0.45,0.24-0.72s0.03-0.54,0-0.81s-0.06-0.5-0.08-0.67l-0.13-0.81l-0.28-1.8c-0.02-0.11-0.1-0.28-0.25-0.49
			c-0.08-0.1-0.15-0.2-0.22-0.27l-0.41-2.66c-0.04-0.23-0.02-0.52,0.04-0.88s0.06-0.76-0.01-1.18l-0.26-1.67l-0.31-2.01
			c-0.12-0.77-0.35-1.4-0.69-1.89s-0.92-0.67-1.75-0.54c-0.17,0.03-0.31,0.07-0.42,0.13s-0.21,0.12-0.3,0.18s-0.2,0.11-0.3,0.16
			c-0.11,0.05-0.27,0.08-0.46,0.12l-1.25-0.16l-0.81,0.13c-0.2,0.03-0.46-0.02-0.79-0.16s-0.51-0.29-0.53-0.47
			c-0.07-0.43,0.11-0.84,0.53-1.22c0.42-0.39,0.92-0.74,1.48-1.04c0.57-0.31,1.13-0.56,1.68-0.75c0.56-0.19,0.93-0.3,1.13-0.33
			l0.73-0.11c0.23-0.04,0.45,0.01,0.68,0.14c0.22,0.13,0.45,0.17,0.68,0.14c0.22-0.09,0.42-0.2,0.61-0.31
			c0.16-0.08,0.33-0.17,0.51-0.25c0.18-0.09,0.34-0.14,0.48-0.16l1.59-0.25l0.81-0.13c0.56-0.15,1.08-0.29,1.56-0.42
			c0.39-0.12,0.78-0.22,1.16-0.31C140.62,25.44,140.88,25.38,141.02,25.36z M139.66,29.83c-0.09,0.01-0.25,0.1-0.49,0.25
			s-0.48,0.35-0.72,0.6c-0.24,0.24-0.45,0.49-0.63,0.76c-0.18,0.26-0.25,0.49-0.22,0.69c0.07,0.05,0.13,0.11,0.2,0.19
			c0.14,0.15,0.23,0.34,0.27,0.57l0.19,1.2l0.37,2.36l0.82,5.27l0.31,2.01c0.15,0.21,0.26,0.44,0.33,0.7
			c0.07,0.25,0.14,0.49,0.22,0.71c0.08,0.22,0.19,0.41,0.33,0.56s0.37,0.23,0.7,0.24l0.47-0.07c0.09-0.01,0.23-0.05,0.44-0.11
			s0.43-0.13,0.67-0.19c0.24-0.07,0.47-0.13,0.69-0.2c0.22-0.06,0.39-0.11,0.51-0.12c1.22-0.22,2.22-0.66,2.98-1.32
			s1.35-1.43,1.77-2.32c0.42-0.88,0.68-1.8,0.8-2.76c0.11-0.95,0.12-1.83,0.03-2.64c-0.07-0.63-0.33-1.37-0.78-2.2
			c-0.45-0.84-0.97-1.6-1.54-2.28c-0.58-0.69-1.14-1.2-1.69-1.54c-0.55-0.34-0.95-0.34-1.19-0.01c-0.19-0.09-0.36-0.18-0.52-0.27
			c-0.16-0.06-0.31-0.13-0.45-0.19c-0.14-0.07-0.26-0.09-0.34-0.08l-0.39,0.06L139.66,29.83z"/>
		<path class="st3" d="M170.12,23.73c0.09,0,0.23,0.03,0.43,0.09c0.2,0.05,0.41,0.11,0.64,0.16s0.45,0.1,0.67,0.14
			c0.22,0.04,0.38,0.06,0.5,0.07c0.06,0,0.16,0.07,0.3,0.19s0.27,0.27,0.39,0.45s0.23,0.38,0.32,0.6c0.09,0.22,0.13,0.43,0.12,0.64
			c0,0.12-0.18,0.21-0.53,0.28c-0.35,0.07-0.74,0.14-1.18,0.21c-0.44,0.07-0.83,0.15-1.18,0.25c-0.35,0.1-0.53,0.24-0.54,0.41
			l-0.14,3.03c0.05,0.23,0.11,0.45,0.19,0.66c0.05,0.18,0.1,0.35,0.15,0.53s0.07,0.31,0.07,0.39l-0.57,2.01
			c0,0.09,0.01,0.25,0.04,0.48s0.08,0.48,0.14,0.74c0.06,0.26,0.11,0.51,0.14,0.74c0.03,0.23,0.05,0.39,0.04,0.48l0.29,2.18
			c-0.03,0.61-0.12,1.17-0.27,1.68s-0.24,0.87-0.25,1.07l-0.06,1.21c-0.01,0.17-0.1,0.32-0.26,0.44c-0.17,0.12-0.26,0.49-0.29,1.09
			c0,0.12,0.03,0.26,0.11,0.42s0.18,0.31,0.3,0.45c0.12,0.14,0.25,0.25,0.4,0.34c0.14,0.09,0.25,0.14,0.34,0.15l0.94,0.3
			c0.79,0.41,1.17,1.04,1.13,1.88c-0.02,0.35-0.27,0.62-0.75,0.81s-0.98,0.28-1.47,0.26l-0.74-0.03l-0.82-0.04l-0.82-0.04
			l-1.58-0.55c-0.17-0.01-0.42,0.02-0.74,0.1s-0.66,0.16-1.01,0.26c-0.35,0.1-0.67,0.19-0.97,0.26s-0.48,0.11-0.57,0.1
			c-0.17-0.01-0.41-0.11-0.7-0.31s-0.44-0.4-0.43-0.61c0.01-0.32,0.19-0.59,0.54-0.82c0.34-0.23,0.72-0.46,1.12-0.69
			s0.75-0.48,1.03-0.75c0.29-0.28,0.4-0.63,0.33-1.07c-0.21-0.44-0.25-0.77-0.13-0.98s0.19-0.42,0.2-0.62l0.05-1.17l0.14-2.9
			l0.29-6.28l-0.42-1.19c0.07-0.31,0.16-0.61,0.26-0.9c0.07-0.23,0.14-0.45,0.21-0.66s0.1-0.38,0.11-0.49
			c0.03-0.58,0-1.03-0.07-1.37s-0.17-0.61-0.31-0.82c-0.14-0.15-0.29-0.25-0.46-0.3c-0.17-0.05-0.35-0.09-0.54-0.11
			c-0.19-0.02-0.38-0.05-0.58-0.09s-0.39-0.1-0.55-0.2c-0.17-0.12-0.3-0.32-0.41-0.58c-0.1-0.27-0.14-0.67-0.12-1.22
			c0.01-0.12,0.02-0.23,0.06-0.34c0.03-0.09,0.07-0.17,0.12-0.25c0.05-0.08,0.13-0.12,0.24-0.12l0.82,0.04l1.56,0.07
			c0.12,0.01,0.25,0.03,0.41,0.06c0.16,0.04,0.31,0.09,0.45,0.15s0.3,0.13,0.47,0.2c0.17,0.01,0.39,0,0.65-0.01
			c0.26-0.02,0.51-0.05,0.74-0.1c0.29-0.04,0.6-0.09,0.92-0.13l0.48,0.02c0.12,0.01,0.26-0.05,0.44-0.15L170.12,23.73z"/>
		<path class="st3" d="M186.93,25.56c0.2,0.05,0.32,0.1,0.36,0.15c0.05,0.06,0.13,0.22,0.24,0.48l7.25,1.73l3.38,1.52l1.18,0.28
			c0.79,0.19,1.39,0.63,1.8,1.32s0.7,1.45,0.86,2.28s0.23,1.64,0.2,2.43c-0.03,0.8-0.09,1.41-0.19,1.83c-0.11,0.48-0.28,1-0.49,1.58
			s-0.49,1.12-0.84,1.65c-0.35,0.53-0.79,0.98-1.33,1.36s-1.18,0.58-1.93,0.61c-0.11-0.03-0.28-0.03-0.49-0.01s-0.43,0.06-0.65,0.11
			s-0.42,0.09-0.61,0.12s-0.32,0.04-0.4,0.02c-0.2-0.05-0.47-0.13-0.81-0.26c-0.34-0.13-0.67-0.29-0.99-0.5s-0.59-0.44-0.8-0.68
			s-0.28-0.52-0.2-0.83c0.09-0.39,0.27-0.63,0.53-0.72s0.57-0.12,0.94-0.11s0.77,0.02,1.2,0.02s0.86-0.11,1.28-0.32
			s0.82-0.61,1.2-1.19c0.38-0.58,0.7-1.43,0.97-2.56c0.04-0.17,0.07-0.36,0.09-0.58c0.02-0.22-0.03-0.44-0.15-0.68
			c-0.15-0.36-0.41-0.72-0.77-1.08c-0.36-0.35-0.75-0.67-1.18-0.95c-0.42-0.28-0.82-0.51-1.2-0.69c-0.37-0.18-0.62-0.28-0.73-0.31
			l-0.72-0.17c-0.11-0.03-0.25-0.01-0.41,0.04c-0.16,0.05-0.31,0.12-0.45,0.2c-0.14,0.09-0.25,0.19-0.32,0.32
			c-0.08,0.13-0.08,0.26-0.03,0.39l-1.32,5.53l-0.47,1.98l-0.58,2.45l0.01,2.01c-0.18,0.37-0.35,0.71-0.5,0.99
			c-0.12,0.27-0.24,0.53-0.34,0.79c-0.11,0.26-0.17,0.44-0.2,0.55c-0.19,0.79-0.1,1.34,0.28,1.65c0.37,0.31,0.8,0.53,1.29,0.66
			c0.49,0.13,0.94,0.28,1.35,0.43c0.41,0.16,0.56,0.46,0.45,0.91l-0.11,0.46c-0.03,0.11-0.1,0.25-0.23,0.41
			c-0.13,0.16-0.27,0.32-0.43,0.48c-0.16,0.16-0.32,0.28-0.49,0.37s-0.31,0.13-0.42,0.1L190.29,52c-0.22-0.05-0.56-0.22-1-0.48
			c-0.44-0.27-0.77-0.43-1-0.48l-2.7-0.64c-0.11-0.03-0.35-0.06-0.71-0.1c-0.36-0.04-0.76-0.08-1.2-0.11s-0.86-0.07-1.26-0.12
			s-0.7-0.1-0.9-0.15c-0.31-0.07-0.6-0.15-0.88-0.23c-0.28-0.08-0.51-0.2-0.69-0.37c-0.18-0.16-0.32-0.37-0.41-0.61
			s-0.08-0.58,0.02-1c0.05-0.2,0.11-0.43,0.19-0.69s0.19-0.5,0.35-0.72s0.35-0.38,0.59-0.51c0.24-0.12,0.55-0.14,0.95-0.04
			l0.38,0.45l1.56,0.37c0.76,0.18,1.23-0.12,1.42-0.91l0.3-1.27l0.84-1.45l-0.27-0.91c0.11-0.21,0.23-0.41,0.36-0.58
			c0.1-0.16,0.19-0.31,0.29-0.47c0.1-0.16,0.15-0.27,0.17-0.36c0.05-0.2,0.03-0.48-0.04-0.86s-0.08-0.67-0.03-0.9
			c0.02-0.08,0.06-0.15,0.11-0.2c0.06-0.05,0.13-0.12,0.23-0.21c0.1-0.1,0.19-0.22,0.27-0.38s0.16-0.41,0.24-0.74l0.36-1.52
			l0.2-0.84c0.04-0.17,0.01-0.38-0.1-0.62c-0.1-0.25-0.11-0.58-0.01-1l0.28-1.18c0.07-0.28,0.21-0.59,0.44-0.92
			c0.13-0.18,0.27-0.37,0.4-0.57c0.1-0.42,0-0.83-0.29-1.23s-0.73-0.67-1.32-0.81l-0.46-0.11c-0.08-0.02-0.25-0.09-0.49-0.21
			c-0.24-0.12-0.49-0.26-0.75-0.42c-0.26-0.17-0.48-0.34-0.65-0.53c-0.18-0.19-0.25-0.37-0.21-0.54c0.06-0.25,0.18-0.46,0.35-0.63
			c0.17-0.17,0.37-0.3,0.58-0.4c0.22-0.1,0.42-0.17,0.63-0.21S186.82,25.54,186.93,25.56z"/>
		<path class="st3" d="M223.43,38.22c0.16,0.08,0.3,0.16,0.43,0.26c0.13,0.1,0.29,0.2,0.48,0.31s0.41,0.24,0.67,0.4
			s0.61,0.35,1.05,0.56l1.44,0.32c0.23,0.05,0.45,0.09,0.66,0.13c0.18,0.02,0.36,0.06,0.52,0.11c0.17,0.05,0.29,0.09,0.37,0.13
			c0.18,0.09,0.38,0.27,0.59,0.53s0.38,0.52,0.51,0.78c0.02,0.43-0.06,0.89-0.24,1.38c-0.18,0.49-0.27,0.95-0.28,1.36
			c0.04,0.12,0.06,0.31,0.05,0.58c0,0.27,0,0.54,0,0.8c-0.04,0.34-0.05,0.69-0.03,1.05c-0.24,0.49-0.69,0.58-1.34,0.26
			c-0.16-0.08-0.33-0.31-0.52-0.71c-0.19-0.4-0.46-0.87-0.81-1.41c-0.35-0.54-0.8-1.1-1.35-1.68s-1.3-1.09-2.23-1.55l-0.83-0.17
			c-0.27,0.16-0.52,0.28-0.73,0.37c-0.22,0.09-0.35,0.18-0.41,0.28l-0.17,0.35c-0.15,0.18-0.3,0.35-0.44,0.51
			c-0.13,0.13-0.24,0.27-0.34,0.41c-0.1,0.14-0.17,0.25-0.21,0.33l-1.37,2.81c-0.19,0.39-0.29,0.8-0.31,1.22s0.14,0.72,0.48,0.89
			c0.08,0.04,0.21,0.09,0.41,0.15c0.19,0.06,0.41,0.12,0.64,0.17c0.26,0.06,0.53,0.13,0.82,0.21l0.78,0.38
			c0.21,0.1,0.42,0.14,0.64,0.12s0.44-0.05,0.65-0.09s0.42-0.08,0.61-0.11s0.37-0.01,0.52,0.06c0.08,0.04,0.14,0.13,0.2,0.29
			c0.05,0.15,0.1,0.32,0.14,0.5l0.16,0.66l-1.26,2.57c-0.36,0.73-0.86,0.93-1.51,0.61c-0.29-0.14-0.5-0.32-0.66-0.54
			c-0.15-0.22-0.27-0.43-0.36-0.64c-0.24-0.24-0.42-0.48-0.55-0.7s-0.34-0.41-0.63-0.55l-0.62-0.3l-0.78-0.38
			c-0.65-0.32-1.12-0.4-1.42-0.26s-0.62,0.57-0.96,1.27l-0.48,0.97c-0.1,0.4-0.23,0.79-0.38,1.17c-0.15,0.38-0.27,0.74-0.36,1.08
			s-0.09,0.67-0.02,0.98c0.07,0.31,0.29,0.6,0.64,0.87l2.18,1.07c0.36,0.18,0.79,0.3,1.29,0.37s1.02,0.09,1.58,0.07
			c0.52,0.06,1,0.12,1.44,0.17s0.82,0.16,1.13,0.31c0.07,0.13,0.12,0.27,0.18,0.42c0.04,0.12,0.08,0.23,0.12,0.35s0.04,0.21,0,0.29
			c-0.09,0.18-0.24,0.32-0.44,0.41s-0.44,0.17-0.7,0.24c-0.53,0.16-0.96,0.38-1.28,0.65s-0.64,0.53-0.92,0.75
			c-0.29,0.23-0.58,0.39-0.89,0.48c-0.3,0.09-0.66,0.04-1.08-0.17c-0.16-0.08-0.29-0.17-0.4-0.27c-0.11-0.1-0.22-0.22-0.33-0.36
			s-0.25-0.27-0.43-0.4s-0.41-0.27-0.69-0.41l-3.84-1.73l-1.48-0.34l-2.06-1.01l-1.17-0.57l-0.89-0.15L205.4,57
			c-0.13-0.06-0.25-0.19-0.35-0.37c-0.11-0.18-0.19-0.37-0.25-0.58c-0.06-0.21-0.1-0.4-0.12-0.59c-0.02-0.19-0.01-0.32,0.03-0.4
			c0.32-0.65,0.96-0.74,1.92-0.27c0.25,0.02,0.5,0.03,0.76,0.03c0.48,0.01,0.87,0.04,1.17,0.09c0.6,0.16,1.05,0.17,1.36,0.04
			c0.31-0.14,0.67-0.64,1.09-1.49c0.06-0.13,0.17-0.24,0.34-0.34c0.16-0.1,0.19-0.27,0.08-0.51c0.06-0.13,0.12-0.27,0.16-0.43
			c0.04-0.16,0.07-0.31,0.08-0.47c0.02-0.18,0.05-0.38,0.09-0.58l0.36-0.74l0.69-1.4l0.48-0.97l1.64-2.57l0.32-0.66
			c0.08-0.16,0.15-0.25,0.21-0.28c0.06-0.03,0.13-0.13,0.21-0.28l1.01-2.06l0.53-1.09l0.57-1.17c0.11-0.23,0.08-0.49-0.11-0.76
			c-0.19-0.27-0.35-0.44-0.48-0.5l-1.09-0.53c-0.49-0.24-0.75-0.62-0.77-1.15c-0.02-0.52,0.11-1.06,0.37-1.6
			c0.08-0.16,0.22-0.26,0.42-0.32c0.21-0.06,0.39-0.05,0.54,0.02l1.29,0.63l0.78,0.38c0.16,0.08,0.41,0.17,0.75,0.29
			c0.34,0.12,0.76,0.3,1.25,0.54L223.43,38.22z"/>
		<path class="st3" d="M264.53,65.55c0.07,0.06,0.07,0.2,0,0.43c-0.06,0.23-0.16,0.48-0.28,0.76s-0.26,0.54-0.4,0.8
			c-0.14,0.26-0.25,0.43-0.33,0.52l-2.03,2.37c-0.08,0.09-0.22,0.25-0.44,0.48s-0.46,0.45-0.73,0.66c-0.27,0.21-0.56,0.35-0.86,0.44
			c-0.3,0.08-0.56,0.03-0.78-0.15c-0.37-0.32-0.57-0.63-0.6-0.94c-0.02-0.31,0.03-0.62,0.17-0.94s0.31-0.65,0.52-0.98
			s0.37-0.67,0.47-1.02c0.11-0.35,0.11-0.7,0.03-1.06c-0.09-0.36-0.37-0.74-0.83-1.14l-1.81-1.55c-0.11-0.09-0.24-0.19-0.39-0.28
			s-0.3-0.16-0.45-0.21c-0.17-0.07-0.34-0.14-0.51-0.21c-0.46-0.4-0.95-0.55-1.45-0.47c-0.51,0.08-0.95,0.34-1.32,0.78l-1.35,1.58
			c-0.15,0.18-0.29,0.33-0.43,0.46c-0.13,0.13-0.19,0.32-0.17,0.57l-1.26,1.14l-4.57,5.34c-0.38,0.44-0.65,0.82-0.82,1.16
			c-0.17,0.33-0.27,0.63-0.31,0.9c-0.04,0.27-0.05,0.52-0.02,0.75s0.05,0.45,0.07,0.66c0.24,0.39,0.44,0.75,0.62,1.07
			s0.46,0.65,0.83,0.97c0.56,0.67,0.88,1.3,0.96,1.88c0.08,0.58-0.01,1.04-0.26,1.37c-0.25,0.34-0.62,0.53-1.12,0.58
			s-1.04-0.12-1.62-0.5c-0.2-0.17-0.36-0.37-0.49-0.59c-0.13-0.23-0.26-0.44-0.4-0.63c-0.18-0.19-0.39-0.39-0.63-0.6
			s-0.48-0.42-0.73-0.65c-0.24-0.23-0.46-0.46-0.65-0.7c-0.19-0.24-0.33-0.49-0.41-0.75l-0.2-0.17l-2.93-2.51
			c-0.13-0.11-0.45-0.28-0.96-0.51c-0.51-0.23-1.02-0.56-1.52-0.99c-0.35-0.3-0.66-0.58-0.93-0.85c-0.22-0.23-0.46-0.46-0.7-0.68
			c-0.24-0.23-0.41-0.38-0.5-0.45c-0.11-0.09-0.24-0.13-0.38-0.09c-0.14,0.03-0.4-0.11-0.77-0.43c-0.02-0.06-0.03-0.14-0.02-0.24
			c-0.01-0.08,0-0.16,0.03-0.23c0.02-0.07,0.08-0.17,0.18-0.27c0.29-0.17,0.61-0.31,0.95-0.44c0.28-0.1,0.58-0.2,0.92-0.3
			c0.33-0.1,0.66-0.16,0.99-0.18c0.4,0.15,0.77,0.3,1.11,0.44c0.29,0.1,0.57,0.21,0.84,0.32c0.26,0.11,0.43,0.2,0.5,0.25l1.89,0.99
			c0.15,0.13,0.36,0.13,0.63,0s0.52-0.3,0.78-0.51c0.29-0.25,0.6-0.57,0.94-0.96l2.99-3.49c0.07-0.09,0.25-0.2,0.53-0.35l0.36-0.15
			l3.61-4.22c0.15-0.18,0.32-0.34,0.5-0.48c0.18-0.15,0.34-0.3,0.47-0.45c0.06-0.07,0.11-0.19,0.15-0.38
			c0.05-0.19,0.07-0.4,0.08-0.62c0-0.23-0.03-0.45-0.08-0.67c-0.06-0.22-0.16-0.4-0.32-0.53l-3.66-3.13
			c-0.46-0.4-0.89-0.62-1.28-0.67s-0.76-0.01-1.11,0.13s-0.68,0.33-1,0.57c-0.32,0.24-0.64,0.44-0.95,0.61
			c-0.31,0.17-0.63,0.26-0.95,0.27s-0.65-0.13-1-0.43c-0.33-0.28-0.46-0.61-0.38-0.99c0.07-0.37,0.23-0.7,0.48-0.99
			c0.07-0.09,0.2-0.22,0.38-0.38s0.37-0.34,0.58-0.51c0.2-0.17,0.39-0.33,0.58-0.48c0.18-0.15,0.3-0.25,0.36-0.32l1.75-1.24
			c0.06-0.07,0.2-0.2,0.43-0.4s0.5-0.4,0.8-0.6c0.3-0.2,0.59-0.35,0.87-0.45c0.28-0.1,0.5-0.09,0.65,0.04
			c0.29,0.24,0.46,0.49,0.54,0.74c0.07,0.25,0.15,0.53,0.23,0.83c0.04,0.22,0.1,0.43,0.19,0.62s0.25,0.39,0.49,0.59
			c0.13,0.11,0.35,0.25,0.66,0.43c0.31,0.17,0.53,0.31,0.66,0.42l0.66,0.56c0.03,0.1,0.08,0.19,0.16,0.28s0.16,0.19,0.25,0.3
			c0.09,0.12,0.2,0.23,0.33,0.34l4.98,4.26l1.03,0.6l0.78,0.95c0.46,0.4,0.96,0.78,1.5,1.14c0.54,0.37,1.03,0.74,1.47,1.12
			l1.58,1.35c0.4,0.34,0.79,0.58,1.2,0.74c0.4,0.15,0.77,0.27,1.1,0.35c0.33,0.08,0.62,0.12,0.86,0.13S264.46,65.5,264.53,65.55z"/>
		<path class="st3" d="M286.59,96.89c0.1,0.14,0.2,0.35,0.3,0.61c0.1,0.26,0.2,0.52,0.28,0.78s0.15,0.48,0.19,0.68
			s0.04,0.31-0.01,0.34c-0.56,0.37-1.1,0.5-1.63,0.4s-0.97-0.4-1.3-0.91l-0.74-1.12c-0.22-0.34-0.45-0.55-0.68-0.64
			c-0.23-0.09-0.47-0.13-0.73-0.12c-0.25,0.01-0.52,0.08-0.81,0.19s-0.57,0.22-0.86,0.31c-0.22-0.03-0.44-0.04-0.65-0.04
			s-0.42-0.05-0.62-0.16c-0.23,0.02-0.46,0-0.7-0.03c-0.23-0.04-0.45-0.06-0.66-0.06c-0.36,0.03-0.9,0.09-1.63,0.17
			s-1.51,0.21-2.35,0.38s-1.66,0.39-2.46,0.64s-1.47,0.56-2,0.91l-1.3,0.86l-1.13,0.49c-0.07,0.05-0.22,0.16-0.43,0.33
			c-0.21,0.18-0.42,0.36-0.62,0.56c-0.2,0.2-0.36,0.4-0.5,0.59c-0.13,0.19-0.17,0.34-0.1,0.43c0.01,0.23,0.13,0.66,0.35,1.28
			c0.22,0.62,0.42,1.27,0.62,1.96c0.19,0.69,0.33,1.32,0.4,1.9s-0.02,0.95-0.26,1.11c-0.12,0.08-0.24,0.14-0.35,0.18
			c-0.23,0.08-0.4,0.02-0.53-0.17c-0.34-0.09-0.59-0.19-0.77-0.3s-0.41-0.17-0.7-0.19c-0.06-0.1-0.17-0.14-0.32-0.13
			s-0.3,0.03-0.46,0.05c-0.16,0.02-0.33,0.02-0.5-0.01c-0.17-0.02-0.31-0.11-0.4-0.25c-0.13-0.19-0.22-0.48-0.29-0.87
			s-0.21-0.75-0.43-1.09l-1.6-2.42c-0.13-0.19-0.24-0.39-0.35-0.6c-0.09-0.19-0.18-0.39-0.28-0.62s-0.16-0.46-0.17-0.69l-1.08-1.63
			c-0.27-0.41-0.52-0.68-0.76-0.8c-0.24-0.12-0.49-0.39-0.76-0.8l-0.41-0.61c-0.56-0.84-0.82-1.48-0.79-1.9
			c0.03-0.42,0.38-0.85,1.03-1.28c0.41-0.27,0.89-0.43,1.43-0.48c0.54-0.05,0.98,0.18,1.31,0.69l0.73,1.96
			c0.1,0.14,0.25,0.29,0.47,0.44s0.44,0.26,0.67,0.34c0.22,0.08,0.44,0.1,0.66,0.06s0.4-0.16,0.54-0.36l3.75-3.05
			c0.19-0.13,0.38-0.27,0.57-0.43s0.42-0.24,0.69-0.25c0.14-0.1,0.27-0.23,0.38-0.41c0.11-0.18,0.24-0.31,0.38-0.41
			c0.51-0.33,0.88-0.76,1.11-1.28c0.23-0.52,0.42-1.22,0.56-2.11c0.25-0.41,0.38-0.95,0.38-1.63s0.02-1.39,0.04-2.13
			c0.24-0.37,0.45-0.82,0.62-1.34c0.17-0.53,0.38-0.98,0.62-1.34c0.03-0.22,0.01-0.44-0.06-0.64s-0.1-0.44-0.1-0.71
			c-0.18-0.54-0.4-1.07-0.64-1.6c-0.1-0.52-0.09-0.99,0.04-1.4c0.12-0.41,0.43-0.78,0.91-1.1c0.41-0.27,0.81-0.4,1.19-0.4
			c0.38,0.01,0.74,0.26,1.08,0.77l1.15,1.74c0.22,0.34,0.37,0.71,0.45,1.11c0.07,0.4,0.17,0.69,0.28,0.86l1.12,1.7
			c0.05,0.07,0.12,0.21,0.23,0.42c0.1,0.21,0.22,0.43,0.36,0.67c0.14,0.24,0.28,0.48,0.41,0.74c0.13,0.26,0.25,0.46,0.35,0.6
			l0.53,0.8c0.11,0.17,0.16,0.28,0.14,0.33s-0.13,0.14-0.32,0.26c-0.19,0.13-0.42,0.17-0.69,0.14c-0.26-0.03-0.55-0.06-0.86-0.08
			c-0.31-0.02-0.62-0.03-0.93-0.03s-0.59,0.08-0.83,0.24c-0.27,0.18-0.52,0.53-0.75,1.07c-0.24,0.54-0.45,1.11-0.63,1.72
			c-0.2,0.69-0.4,1.46-0.6,2.32c-0.07,0.05-0.17,0.14-0.28,0.29c-0.11,0.14-0.22,0.29-0.33,0.45c-0.1,0.16-0.18,0.31-0.24,0.47
			c-0.05,0.16-0.05,0.27-0.01,0.34c0.11,0.17,0.34,0.26,0.7,0.27c0.35,0.01,0.73-0.02,1.14-0.08s0.79-0.13,1.15-0.19
			c0.36-0.06,0.6-0.07,0.74-0.02c0.1-0.06,0.31-0.1,0.65-0.12s0.7-0.02,1.1-0.03s0.78-0.02,1.16-0.06c0.37-0.04,0.66-0.12,0.85-0.25
			c0.14-0.1,0.2-0.27,0.17-0.53s-0.05-0.54-0.06-0.84c-0.01-0.3,0.02-0.62,0.08-0.94c0.07-0.32,0.28-0.6,0.64-0.84
			c0.1-0.06,0.22-0.07,0.36,0c0.14,0.06,0.29,0.15,0.44,0.28c0.15,0.12,0.29,0.26,0.42,0.4s0.22,0.26,0.29,0.36
			c0.05,0.18,0.1,0.33,0.15,0.47c0.06,0.14,0.11,0.26,0.17,0.38c0.06,0.12,0.11,0.21,0.16,0.28l0.46,0.69
			c0.33,0.3,0.6,0.58,0.78,0.83c0.19,0.26,0.5,0.71,0.93,1.36c0.16,0.24,0.31,0.43,0.45,0.56s0.28,0.23,0.41,0.3
			s0.26,0.15,0.37,0.25C286.34,96.55,286.46,96.69,286.59,96.89z"/>
		<path class="st3" d="M293.87,142.87c0.09,0.48,0,0.85-0.27,1.09c-0.28,0.24-0.64,0.43-1.1,0.57s-0.97,0.25-1.52,0.34
			c-0.56,0.09-1.07,0.21-1.54,0.36c-0.5,0.16-0.93,0.32-1.3,0.49c-0.36,0.17-0.71,0.35-1.04,0.53c-0.33,0.18-0.69,0.35-1.07,0.5
			s-0.85,0.27-1.38,0.38c-0.34,0.07-0.67-0.03-0.98-0.27s-0.51-0.56-0.58-0.93c-0.1-0.54-0.12-1.02-0.06-1.45s0.17-0.85,0.31-1.27
			c0.14-0.42,0.29-0.85,0.46-1.28c0.17-0.43,0.31-0.92,0.44-1.48c0.02-0.36,0.01-0.72-0.03-1.08s-0.06-0.69-0.06-1
			s0.05-0.58,0.15-0.8s0.31-0.37,0.62-0.43c0.45-0.09,0.86-0.06,1.21,0.08s0.69,0.32,1.01,0.55s0.65,0.49,0.97,0.78
			s0.68,0.56,1.08,0.81c0.48,0.35,0.97,0.62,1.48,0.82c0.51,0.2,0.98,0.4,1.42,0.61s0.82,0.47,1.14,0.77
			C293.55,141.86,293.76,142.3,293.87,142.87z"/>
	</g>
</g>
</svg>
