<svg xmlns="http://www.w3.org/2000/svg" xmlns:xlink="http://www.w3.org/1999/xlink" width="200" zoomAndPan="magnify" viewBox="0 0 150 30.000001" height="40" preserveAspectRatio="xMidYMid meet" version="1.0"><defs><g/><clipPath id="ea1d64c5d3"><path d="M 2.417969 1 L 147 1 L 147 28 L 2.417969 28 Z M 2.417969 1 " clip-rule="nonzero"/></clipPath><clipPath id="bb8dcaa7bd"><path d="M 0.417969 7 L 16 7 L 16 19 L 0.417969 19 Z M 0.417969 7 " clip-rule="nonzero"/></clipPath><clipPath id="bf22f07eee"><path d="M 38 0.160156 L 52 0.160156 L 52 19 L 38 19 Z M 38 0.160156 " clip-rule="nonzero"/></clipPath><clipPath id="20c2682b1e"><path d="M 106 20 L 128.910156 20 L 128.910156 22 L 106 22 Z M 106 20 " clip-rule="nonzero"/></clipPath><clipPath id="31ce2e0f79"><rect x="0" width="145" y="0" height="27"/></clipPath></defs><g clip-path="url(#ea1d64c5d3)"><g transform="matrix(1, 0, 0, 1, 2, 1)"><g clip-path="url(#31ce2e0f79)"><g clip-path="url(#bb8dcaa7bd)"><g fill="#17817f" fill-opacity="1"><g transform="translate(1.30126, 18.596777)"><g><path d="M 4.015625 -10.859375 L 6.671875 -4.953125 L 9.3125 -10.859375 L 13.75 -10.859375 L 7.9375 0 L 5.390625 0 L -0.421875 -10.859375 Z M 4.015625 -10.859375 "/></g></g></g></g><g fill="#17817f" fill-opacity="1"><g transform="translate(13.020284, 18.596777)"><g><path d="M 2 -1.34375 C 0.988281 -2.445312 0.484375 -3.800781 0.484375 -5.40625 C 0.484375 -7.019531 0.988281 -8.382812 2 -9.5 C 3.019531 -10.613281 4.3125 -11.171875 5.875 -11.171875 C 7.320312 -11.171875 8.507812 -10.71875 9.4375 -9.8125 L 9.4375 -10.859375 L 13.1875 -10.859375 L 13.1875 0 L 9.484375 0 L 9.484375 -1.234375 L 9.4375 -1.234375 C 8.507812 -0.203125 7.320312 0.3125 5.875 0.3125 C 4.3125 0.3125 3.019531 -0.238281 2 -1.34375 Z M 5.1875 -7.25 C 4.707031 -6.769531 4.46875 -6.15625 4.46875 -5.40625 C 4.46875 -4.664062 4.695312 -4.054688 5.15625 -3.578125 C 5.625 -3.109375 6.238281 -2.875 7 -2.875 C 7.738281 -2.875 8.34375 -3.113281 8.8125 -3.59375 C 9.28125 -4.070312 9.515625 -4.679688 9.515625 -5.421875 C 9.515625 -6.160156 9.269531 -6.769531 8.78125 -7.25 C 8.300781 -7.726562 7.707031 -7.96875 7 -7.96875 C 6.28125 -7.96875 5.675781 -7.726562 5.1875 -7.25 Z M 5.1875 -7.25 "/></g></g></g><g fill="#17817f" fill-opacity="1"><g transform="translate(25.86049, 18.596777)"><g><path d="M 1.265625 0 L 1.265625 -10.859375 L 5.015625 -10.859375 L 5.015625 -9.703125 L 5.0625 -9.703125 C 6.03125 -10.679688 7.066406 -11.171875 8.171875 -11.171875 C 8.703125 -11.171875 9.234375 -11.097656 9.765625 -10.953125 C 10.296875 -10.816406 10.800781 -10.597656 11.28125 -10.296875 C 11.769531 -10.003906 12.164062 -9.585938 12.46875 -9.046875 C 12.769531 -8.503906 12.921875 -7.875 12.921875 -7.15625 L 12.921875 0 L 9.1875 0 L 9.1875 -6.140625 C 9.1875 -6.703125 9.003906 -7.191406 8.640625 -7.609375 C 8.285156 -8.035156 7.816406 -8.25 7.234375 -8.25 C 6.671875 -8.25 6.160156 -8.03125 5.703125 -7.59375 C 5.242188 -7.15625 5.015625 -6.671875 5.015625 -6.140625 L 5.015625 0 Z M 1.265625 0 "/></g></g></g><g clip-path="url(#bf22f07eee)"><g fill="#17817f" fill-opacity="1"><g transform="translate(38.235297, 18.596777)"><g><path d="M 2 -1.34375 C 0.988281 -2.445312 0.484375 -3.800781 0.484375 -5.40625 C 0.484375 -7.019531 0.988281 -8.382812 2 -9.5 C 3.019531 -10.613281 4.3125 -11.171875 5.875 -11.171875 C 7.320312 -11.171875 8.507812 -10.71875 9.4375 -9.8125 L 9.4375 -18.1875 L 13.1875 -18.1875 L 13.1875 0 L 9.484375 0 L 9.484375 -1.234375 L 9.4375 -1.234375 C 8.507812 -0.203125 7.320312 0.3125 5.875 0.3125 C 4.3125 0.3125 3.019531 -0.238281 2 -1.34375 Z M 5.1875 -7.25 C 4.707031 -6.769531 4.46875 -6.15625 4.46875 -5.40625 C 4.46875 -4.664062 4.695312 -4.054688 5.15625 -3.578125 C 5.625 -3.109375 6.238281 -2.875 7 -2.875 C 7.738281 -2.875 8.34375 -3.113281 8.8125 -3.59375 C 9.28125 -4.070312 9.515625 -4.679688 9.515625 -5.421875 C 9.515625 -6.160156 9.269531 -6.769531 8.78125 -7.25 C 8.300781 -7.726562 7.707031 -7.96875 7 -7.96875 C 6.28125 -7.96875 5.675781 -7.726562 5.1875 -7.25 Z M 5.1875 -7.25 "/></g></g></g></g><g fill="#17817f" fill-opacity="1"><g transform="translate(51.075502, 18.596777)"><g><path d="M 1.625 -16.90625 C 2.0625 -17.34375 2.582031 -17.5625 3.1875 -17.5625 C 3.800781 -17.5625 4.328125 -17.34375 4.765625 -16.90625 C 5.203125 -16.46875 5.421875 -15.941406 5.421875 -15.328125 C 5.421875 -14.722656 5.203125 -14.203125 4.765625 -13.765625 C 4.328125 -13.328125 3.800781 -13.109375 3.1875 -13.109375 C 2.582031 -13.109375 2.0625 -13.328125 1.625 -13.765625 C 1.1875 -14.203125 0.96875 -14.722656 0.96875 -15.328125 C 0.96875 -15.941406 1.1875 -16.46875 1.625 -16.90625 Z M 1.265625 -10.859375 L 1.265625 0 L 5.015625 0 L 5.015625 -10.859375 Z M 1.265625 -10.859375 "/></g></g></g><g fill="#17817f" fill-opacity="1"><g transform="translate(55.855929, 18.596777)"><g><path d="M 12.4375 -9.5 C 13.457031 -8.394531 13.96875 -7.039062 13.96875 -5.4375 C 13.96875 -3.832031 13.457031 -2.472656 12.4375 -1.359375 C 11.425781 -0.242188 10.132812 0.3125 8.5625 0.3125 C 7.125 0.3125 5.941406 -0.132812 5.015625 -1.03125 L 5.015625 5.5 L 1.265625 5.5 L 1.265625 -10.859375 L 4.96875 -10.859375 L 4.96875 -9.625 L 5.015625 -9.625 C 5.941406 -10.65625 7.125 -11.171875 8.5625 -11.171875 C 10.132812 -11.171875 11.425781 -10.613281 12.4375 -9.5 Z M 9.25 -3.59375 C 9.738281 -4.070312 9.984375 -4.6875 9.984375 -5.4375 C 9.984375 -6.1875 9.75 -6.796875 9.28125 -7.265625 C 8.820312 -7.734375 8.210938 -7.96875 7.453125 -7.96875 C 6.710938 -7.96875 6.101562 -7.726562 5.625 -7.25 C 5.15625 -6.769531 4.921875 -6.164062 4.921875 -5.4375 C 4.921875 -4.6875 5.164062 -4.070312 5.65625 -3.59375 C 6.144531 -3.113281 6.742188 -2.875 7.453125 -2.875 C 8.171875 -2.875 8.769531 -3.113281 9.25 -3.59375 Z M 9.25 -3.59375 "/></g></g></g><g fill="#17817f" fill-opacity="1"><g transform="translate(68.696134, 18.596777)"><g><path d="M 12.25 -4.90625 L 4.375 -4.90625 C 4.375 -4.144531 4.617188 -3.582031 5.109375 -3.21875 C 5.609375 -2.851562 6.148438 -2.671875 6.734375 -2.671875 C 7.335938 -2.671875 7.8125 -2.75 8.15625 -2.90625 C 8.507812 -3.070312 8.914062 -3.394531 9.375 -3.875 L 12.078125 -2.515625 C 10.953125 -0.628906 9.078125 0.3125 6.453125 0.3125 C 4.816406 0.3125 3.410156 -0.242188 2.234375 -1.359375 C 1.066406 -2.484375 0.484375 -3.832031 0.484375 -5.40625 C 0.484375 -6.988281 1.066406 -8.34375 2.234375 -9.46875 C 3.410156 -10.601562 4.816406 -11.171875 6.453125 -11.171875 C 8.171875 -11.171875 9.566406 -10.671875 10.640625 -9.671875 C 11.722656 -8.679688 12.265625 -7.265625 12.265625 -5.421875 C 12.265625 -5.160156 12.257812 -4.988281 12.25 -4.90625 Z M 4.484375 -6.984375 L 8.609375 -6.984375 C 8.523438 -7.546875 8.300781 -7.976562 7.9375 -8.28125 C 7.582031 -8.582031 7.125 -8.734375 6.5625 -8.734375 C 5.9375 -8.734375 5.441406 -8.570312 5.078125 -8.25 C 4.710938 -7.925781 4.515625 -7.503906 4.484375 -6.984375 Z M 4.484375 -6.984375 "/></g></g></g><g fill="#17817f" fill-opacity="1"><g transform="translate(79.843995, 18.596777)"><g><path d="M 1.90625 -10.859375 L 1.90625 -14.890625 L 5.65625 -14.890625 L 5.65625 -10.859375 L 7.9375 -10.859375 L 7.9375 -8 L 5.65625 -8 L 5.65625 -4.546875 C 5.65625 -3.546875 5.9375 -3.046875 6.5 -3.046875 C 6.632812 -3.046875 6.78125 -3.070312 6.9375 -3.125 C 7.09375 -3.1875 7.210938 -3.242188 7.296875 -3.296875 L 7.421875 -3.390625 L 8.359375 -0.359375 C 7.554688 0.0859375 6.640625 0.3125 5.609375 0.3125 C 4.898438 0.3125 4.289062 0.191406 3.78125 -0.046875 C 3.28125 -0.296875 2.898438 -0.628906 2.640625 -1.046875 C 2.378906 -1.460938 2.191406 -1.898438 2.078125 -2.359375 C 1.960938 -2.816406 1.90625 -3.304688 1.90625 -3.828125 L 1.90625 -8 L 0.34375 -8 L 0.34375 -10.859375 Z M 1.90625 -10.859375 "/></g></g></g><g fill="#17817f" fill-opacity="1"><g transform="translate(86.591772, 18.596777)"><g><path d="M 9.5 -10.859375 L 13.8125 -10.859375 L 5.296875 5.5 L 0.96875 5.5 L 4.71875 -1.6875 L -0.421875 -10.859375 L 3.890625 -10.859375 L 6.921875 -5.296875 Z M 9.5 -10.859375 "/></g></g></g><g fill="#17817f" fill-opacity="1"><g transform="translate(98.377882, 18.596777)"><g/></g></g><g fill="#17817f" fill-opacity="1"><g transform="translate(102.544839, 18.596777)"><g/></g></g><g clip-path="url(#20c2682b1e)"><path fill="#17817f" d="M 106.71875 20.046875 L 143.082031 20.046875 L 143.082031 21.984375 L 106.71875 21.984375 Z M 106.71875 20.046875 " fill-opacity="1" fill-rule="nonzero"/></g><g fill="#17817f" fill-opacity="1"><g transform="translate(106.717094, 18.596777)"><g><path d="M 12.25 -4.90625 L 4.375 -4.90625 C 4.375 -4.144531 4.617188 -3.582031 5.109375 -3.21875 C 5.609375 -2.851562 6.148438 -2.671875 6.734375 -2.671875 C 7.335938 -2.671875 7.8125 -2.75 8.15625 -2.90625 C 8.507812 -3.070312 8.914062 -3.394531 9.375 -3.875 L 12.078125 -2.515625 C 10.953125 -0.628906 9.078125 0.3125 6.453125 0.3125 C 4.816406 0.3125 3.410156 -0.242188 2.234375 -1.359375 C 1.066406 -2.484375 0.484375 -3.832031 0.484375 -5.40625 C 0.484375 -6.988281 1.066406 -8.34375 2.234375 -9.46875 C 3.410156 -10.601562 4.816406 -11.171875 6.453125 -11.171875 C 8.171875 -11.171875 9.566406 -10.671875 10.640625 -9.671875 C 11.722656 -8.679688 12.265625 -7.265625 12.265625 -5.421875 C 12.265625 -5.160156 12.257812 -4.988281 12.25 -4.90625 Z M 4.484375 -6.984375 L 8.609375 -6.984375 C 8.523438 -7.546875 8.300781 -7.976562 7.9375 -8.28125 C 7.582031 -8.582031 7.125 -8.734375 6.5625 -8.734375 C 5.9375 -8.734375 5.441406 -8.570312 5.078125 -8.25 C 4.710938 -7.925781 4.515625 -7.503906 4.484375 -6.984375 Z M 4.484375 -6.984375 "/></g></g></g><g fill="#17817f" fill-opacity="1"><g transform="translate(117.864954, 18.596777)"><g><path d="M 1.265625 0 L 1.265625 -10.859375 L 5.015625 -10.859375 L 5.015625 -9.703125 L 5.0625 -9.703125 C 6.03125 -10.679688 7.066406 -11.171875 8.171875 -11.171875 C 8.703125 -11.171875 9.234375 -11.097656 9.765625 -10.953125 C 10.296875 -10.816406 10.800781 -10.597656 11.28125 -10.296875 C 11.769531 -10.003906 12.164062 -9.585938 12.46875 -9.046875 C 12.769531 -8.503906 12.921875 -7.875 12.921875 -7.15625 L 12.921875 0 L 9.1875 0 L 9.1875 -6.140625 C 9.1875 -6.703125 9.003906 -7.191406 8.640625 -7.609375 C 8.285156 -8.035156 7.816406 -8.25 7.234375 -8.25 C 6.671875 -8.25 6.160156 -8.03125 5.703125 -7.59375 C 5.242188 -7.15625 5.015625 -6.671875 5.015625 -6.140625 L 5.015625 0 Z M 1.265625 0 "/></g></g></g><g fill="#17817f" fill-opacity="1"><g transform="translate(130.239762, 18.596777)"><g><path d="M 0.78125 2.671875 L 3.84375 1.15625 C 4.414062 2.09375 5.398438 2.5625 6.796875 2.5625 C 7.441406 2.5625 8.039062 2.351562 8.59375 1.9375 C 9.15625 1.519531 9.4375 0.878906 9.4375 0.015625 L 9.4375 -0.78125 C 8.769531 -0.0507812 7.582031 0.3125 5.875 0.3125 C 4.3125 0.3125 3.019531 -0.238281 2 -1.34375 C 0.988281 -2.445312 0.484375 -3.800781 0.484375 -5.40625 C 0.484375 -7.019531 0.988281 -8.382812 2 -9.5 C 3.019531 -10.613281 4.3125 -11.171875 5.875 -11.171875 C 7.269531 -11.171875 8.4375 -10.738281 9.375 -9.875 L 9.4375 -9.875 L 9.4375 -10.859375 L 13.1875 -10.859375 L 13.1875 0.296875 C 13.1875 2.054688 12.597656 3.414062 11.421875 4.375 C 10.253906 5.332031 8.710938 5.8125 6.796875 5.8125 C 3.691406 5.8125 1.6875 4.765625 0.78125 2.671875 Z M 5.1875 -7.25 C 4.707031 -6.769531 4.46875 -6.15625 4.46875 -5.40625 C 4.46875 -4.664062 4.695312 -4.054688 5.15625 -3.578125 C 5.625 -3.109375 6.238281 -2.875 7 -2.875 C 7.738281 -2.875 8.34375 -3.113281 8.8125 -3.59375 C 9.28125 -4.070312 9.515625 -4.679688 9.515625 -5.421875 C 9.515625 -6.160156 9.269531 -6.769531 8.78125 -7.25 C 8.300781 -7.726562 7.707031 -7.96875 7 -7.96875 C 6.28125 -7.96875 5.675781 -7.726562 5.1875 -7.25 Z M 5.1875 -7.25 "/></g></g></g></g></g></g></svg>