<svg xmlns="http://www.w3.org/2000/svg" xmlns:xlink="http://www.w3.org/1999/xlink" width="200" zoomAndPan="magnify" viewBox="0 0 150 30.000001" height="40" preserveAspectRatio="xMidYMid meet" version="1.0"><defs><g/><clipPath id="78397ed315"><path d="M 16 0 L 134 0 L 134 29.03125 L 16 29.03125 Z M 16 0 " clip-rule="nonzero"/></clipPath><clipPath id="7c01b2af62"><rect x="0" width="118" y="0" height="30"/></clipPath></defs><g clip-path="url(#78397ed315)"><g transform="matrix(1, 0, 0, 1, 16, 0.000000000000005692)"><g clip-path="url(#7c01b2af62)"><g fill="#17817f" fill-opacity="1"><g transform="translate(1.654812, 21.323205)"><g><path d="M 4.671875 -12.609375 L 7.75 -5.75 L 10.828125 -12.609375 L 15.984375 -12.609375 L 9.21875 0 L 6.265625 0 L -0.484375 -12.609375 Z M 4.671875 -12.609375 "/></g></g></g><g fill="#17817f" fill-opacity="1"><g transform="translate(15.274789, 21.323205)"><g><path d="M 2.328125 -1.5625 C 1.148438 -2.851562 0.5625 -4.429688 0.5625 -6.296875 C 0.5625 -8.160156 1.148438 -9.738281 2.328125 -11.03125 C 3.515625 -12.332031 5.019531 -12.984375 6.84375 -12.984375 C 8.507812 -12.984375 9.882812 -12.457031 10.96875 -11.40625 L 10.96875 -12.609375 L 15.328125 -12.609375 L 15.328125 0 L 11.015625 0 L 11.015625 -1.421875 L 10.96875 -1.421875 C 9.882812 -0.222656 8.507812 0.375 6.84375 0.375 C 5.019531 0.375 3.515625 -0.269531 2.328125 -1.5625 Z M 6.03125 -8.421875 C 5.46875 -7.867188 5.1875 -7.160156 5.1875 -6.296875 C 5.1875 -5.429688 5.457031 -4.722656 6 -4.171875 C 6.539062 -3.617188 7.253906 -3.34375 8.140625 -3.34375 C 8.992188 -3.34375 9.691406 -3.617188 10.234375 -4.171875 C 10.785156 -4.734375 11.0625 -5.441406 11.0625 -6.296875 C 11.0625 -7.160156 10.78125 -7.867188 10.21875 -8.421875 C 9.65625 -8.984375 8.960938 -9.265625 8.140625 -9.265625 C 7.304688 -9.265625 6.601562 -8.984375 6.03125 -8.421875 Z M 6.03125 -8.421875 "/></g></g></g><g fill="#17817f" fill-opacity="1"><g transform="translate(30.197816, 21.323205)"><g><path d="M 1.46875 0 L 1.46875 -12.609375 L 5.828125 -12.609375 L 5.828125 -11.28125 L 5.875 -11.28125 C 7.007812 -12.414062 8.21875 -12.984375 9.5 -12.984375 C 10.113281 -12.984375 10.726562 -12.898438 11.34375 -12.734375 C 11.957031 -12.578125 12.546875 -12.320312 13.109375 -11.96875 C 13.679688 -11.625 14.144531 -11.132812 14.5 -10.5 C 14.851562 -9.875 15.03125 -9.144531 15.03125 -8.3125 L 15.03125 0 L 10.671875 0 L 10.671875 -7.125 C 10.671875 -7.78125 10.460938 -8.351562 10.046875 -8.84375 C 9.628906 -9.34375 9.082031 -9.59375 8.40625 -9.59375 C 7.75 -9.59375 7.15625 -9.335938 6.625 -8.828125 C 6.09375 -8.316406 5.828125 -7.75 5.828125 -7.125 L 5.828125 0 Z M 1.46875 0 "/></g></g></g><g fill="#17817f" fill-opacity="1"><g transform="translate(44.579952, 21.323205)"><g><path d="M 2.328125 -1.5625 C 1.148438 -2.851562 0.5625 -4.429688 0.5625 -6.296875 C 0.5625 -8.160156 1.148438 -9.738281 2.328125 -11.03125 C 3.515625 -12.332031 5.019531 -12.984375 6.84375 -12.984375 C 8.507812 -12.984375 9.882812 -12.457031 10.96875 -11.40625 L 10.96875 -21.15625 L 15.328125 -21.15625 L 15.328125 0 L 11.015625 0 L 11.015625 -1.421875 L 10.96875 -1.421875 C 9.882812 -0.222656 8.507812 0.375 6.84375 0.375 C 5.019531 0.375 3.515625 -0.269531 2.328125 -1.5625 Z M 6.03125 -8.421875 C 5.46875 -7.867188 5.1875 -7.160156 5.1875 -6.296875 C 5.1875 -5.429688 5.457031 -4.722656 6 -4.171875 C 6.539062 -3.617188 7.253906 -3.34375 8.140625 -3.34375 C 8.992188 -3.34375 9.691406 -3.617188 10.234375 -4.171875 C 10.785156 -4.734375 11.0625 -5.441406 11.0625 -6.296875 C 11.0625 -7.160156 10.78125 -7.867188 10.21875 -8.421875 C 9.65625 -8.984375 8.960938 -9.265625 8.140625 -9.265625 C 7.304688 -9.265625 6.601562 -8.984375 6.03125 -8.421875 Z M 6.03125 -8.421875 "/></g></g></g><g fill="#17817f" fill-opacity="1"><g transform="translate(59.502979, 21.323205)"><g><path d="M 1.890625 -19.640625 C 2.398438 -20.148438 3.003906 -20.40625 3.703125 -20.40625 C 4.410156 -20.40625 5.019531 -20.148438 5.53125 -19.640625 C 6.039062 -19.140625 6.296875 -18.535156 6.296875 -17.828125 C 6.296875 -17.117188 6.039062 -16.507812 5.53125 -16 C 5.019531 -15.5 4.410156 -15.25 3.703125 -15.25 C 3.003906 -15.25 2.398438 -15.5 1.890625 -16 C 1.378906 -16.507812 1.125 -17.117188 1.125 -17.828125 C 1.125 -18.535156 1.378906 -19.140625 1.890625 -19.640625 Z M 1.46875 -12.609375 L 1.46875 0 L 5.828125 0 L 5.828125 -12.609375 Z M 1.46875 -12.609375 "/></g></g></g><g fill="#17817f" fill-opacity="1"><g transform="translate(65.058825, 21.323205)"><g><path d="M 14.453125 -11.046875 C 15.640625 -9.765625 16.234375 -8.1875 16.234375 -6.3125 C 16.234375 -4.445312 15.640625 -2.863281 14.453125 -1.5625 C 13.273438 -0.269531 11.773438 0.375 9.953125 0.375 C 8.285156 0.375 6.910156 -0.148438 5.828125 -1.203125 L 5.828125 6.390625 L 1.46875 6.390625 L 1.46875 -12.609375 L 5.78125 -12.609375 L 5.78125 -11.1875 L 5.828125 -11.1875 C 6.910156 -12.382812 8.285156 -12.984375 9.953125 -12.984375 C 11.773438 -12.984375 13.273438 -12.335938 14.453125 -11.046875 Z M 10.75 -4.171875 C 11.320312 -4.734375 11.609375 -5.445312 11.609375 -6.3125 C 11.609375 -7.1875 11.335938 -7.894531 10.796875 -8.4375 C 10.253906 -8.988281 9.539062 -9.265625 8.65625 -9.265625 C 7.800781 -9.265625 7.097656 -8.984375 6.546875 -8.421875 C 6.003906 -7.867188 5.734375 -7.171875 5.734375 -6.328125 C 5.734375 -5.453125 6.015625 -4.734375 6.578125 -4.171875 C 7.140625 -3.617188 7.832031 -3.34375 8.65625 -3.34375 C 9.488281 -3.34375 10.1875 -3.617188 10.75 -4.171875 Z M 10.75 -4.171875 "/></g></g></g><g fill="#17817f" fill-opacity="1"><g transform="translate(79.981852, 21.323205)"><g><path d="M 14.234375 -5.703125 L 5.09375 -5.703125 C 5.09375 -4.816406 5.378906 -4.160156 5.953125 -3.734375 C 6.523438 -3.304688 7.148438 -3.09375 7.828125 -3.09375 C 8.523438 -3.09375 9.078125 -3.1875 9.484375 -3.375 C 9.898438 -3.570312 10.367188 -3.945312 10.890625 -4.5 L 14.046875 -2.921875 C 12.734375 -0.722656 10.550781 0.375 7.5 0.375 C 5.59375 0.375 3.957031 -0.273438 2.59375 -1.578125 C 1.238281 -2.890625 0.5625 -4.460938 0.5625 -6.296875 C 0.5625 -8.128906 1.238281 -9.703125 2.59375 -11.015625 C 3.957031 -12.328125 5.59375 -12.984375 7.5 -12.984375 C 9.5 -12.984375 11.125 -12.40625 12.375 -11.25 C 13.632812 -10.09375 14.265625 -8.441406 14.265625 -6.296875 C 14.265625 -6.003906 14.253906 -5.804688 14.234375 -5.703125 Z M 5.21875 -8.109375 L 10.015625 -8.109375 C 9.910156 -8.765625 9.648438 -9.269531 9.234375 -9.625 C 8.816406 -9.976562 8.28125 -10.15625 7.625 -10.15625 C 6.90625 -10.15625 6.332031 -9.96875 5.90625 -9.59375 C 5.476562 -9.21875 5.25 -8.722656 5.21875 -8.109375 Z M 5.21875 -8.109375 "/></g></g></g><g fill="#17817f" fill-opacity="1"><g transform="translate(92.938014, 21.323205)"><g><path d="M 2.21875 -12.609375 L 2.21875 -17.3125 L 6.5625 -17.3125 L 6.5625 -12.609375 L 9.21875 -12.609375 L 9.21875 -9.296875 L 6.5625 -9.296875 L 6.5625 -5.28125 C 6.5625 -4.125 6.890625 -3.546875 7.546875 -3.546875 C 7.710938 -3.546875 7.882812 -3.578125 8.0625 -3.640625 C 8.25 -3.703125 8.390625 -3.769531 8.484375 -3.84375 L 8.625 -3.9375 L 9.71875 -0.421875 C 8.78125 0.109375 7.710938 0.375 6.515625 0.375 C 5.691406 0.375 4.984375 0.234375 4.390625 -0.046875 C 3.804688 -0.335938 3.363281 -0.722656 3.0625 -1.203125 C 2.757812 -1.691406 2.539062 -2.203125 2.40625 -2.734375 C 2.28125 -3.273438 2.21875 -3.847656 2.21875 -4.453125 L 2.21875 -9.296875 L 0.390625 -9.296875 L 0.390625 -12.609375 Z M 2.21875 -12.609375 "/></g></g></g><g fill="#17817f" fill-opacity="1"><g transform="translate(100.780337, 21.323205)"><g><path d="M 11.046875 -12.609375 L 16.0625 -12.609375 L 6.15625 6.390625 L 1.125 6.390625 L 5.484375 -1.96875 L -0.484375 -12.609375 L 4.53125 -12.609375 L 8.046875 -6.15625 Z M 11.046875 -12.609375 "/></g></g></g></g></g></g></svg>