<svg xmlns="http://www.w3.org/2000/svg" xmlns:xlink="http://www.w3.org/1999/xlink" width="300" zoomAndPan="magnify" viewBox="0 0 224.87999 33.749998" height="45" preserveAspectRatio="xMidYMid meet" version="1.0"><defs><g/><clipPath id="910a8b45c9"><path d="M 45 0 L 179 0 L 179 33.5 L 45 33.5 Z M 45 0 " clip-rule="nonzero"/></clipPath><clipPath id="512a391637"><path d="M 114 9 L 133.96875 9 L 133.96875 32 L 114 32 Z M 114 9 " clip-rule="nonzero"/></clipPath><clipPath id="bb1c81a6fd"><rect x="0" width="134" y="0" height="34"/></clipPath></defs><g clip-path="url(#910a8b45c9)"><g transform="matrix(1, 0, 0, 1, 45, -0.000000000000001048)"><g clip-path="url(#bb1c81a6fd)"><g fill="#17817f" fill-opacity="1"><g transform="translate(1.996582, 24.33444)"><g><path d="M 5.328125 -14.390625 L 8.84375 -6.5625 L 12.34375 -14.390625 L 18.234375 -14.390625 L 10.53125 0 L 7.15625 0 L -0.5625 -14.390625 Z M 5.328125 -14.390625 "/></g></g></g><g fill="#17817f" fill-opacity="1"><g transform="translate(17.539956, 24.33444)"><g><path d="M 2.65625 -1.78125 C 1.3125 -3.25 0.640625 -5.050781 0.640625 -7.1875 C 0.640625 -9.320312 1.3125 -11.125 2.65625 -12.59375 C 4.007812 -14.070312 5.722656 -14.8125 7.796875 -14.8125 C 9.703125 -14.8125 11.273438 -14.210938 12.515625 -13.015625 L 12.515625 -14.390625 L 17.484375 -14.390625 L 17.484375 0 L 12.578125 0 L 12.578125 -1.625 L 12.515625 -1.625 C 11.273438 -0.257812 9.703125 0.421875 7.796875 0.421875 C 5.722656 0.421875 4.007812 -0.3125 2.65625 -1.78125 Z M 6.890625 -9.625 C 6.242188 -8.988281 5.921875 -8.175781 5.921875 -7.1875 C 5.921875 -6.195312 6.226562 -5.382812 6.84375 -4.75 C 7.457031 -4.125 8.269531 -3.8125 9.28125 -3.8125 C 10.257812 -3.8125 11.0625 -4.128906 11.6875 -4.765625 C 12.3125 -5.398438 12.625 -6.207031 12.625 -7.1875 C 12.625 -8.175781 12.300781 -8.988281 11.65625 -9.625 C 11.007812 -10.257812 10.21875 -10.578125 9.28125 -10.578125 C 8.332031 -10.578125 7.535156 -10.257812 6.890625 -9.625 Z M 6.890625 -9.625 "/></g></g></g><g fill="#17817f" fill-opacity="1"><g transform="translate(34.570395, 24.33444)"><g><path d="M 1.6875 0 L 1.6875 -14.390625 L 6.65625 -14.390625 L 6.65625 -12.875 L 6.703125 -12.875 C 7.992188 -14.164062 9.367188 -14.8125 10.828125 -14.8125 C 11.546875 -14.8125 12.253906 -14.71875 12.953125 -14.53125 C 13.648438 -14.34375 14.320312 -14.050781 14.96875 -13.65625 C 15.613281 -13.269531 16.132812 -12.71875 16.53125 -12 C 16.9375 -11.28125 17.140625 -10.441406 17.140625 -9.484375 L 17.140625 0 L 12.171875 0 L 12.171875 -8.140625 C 12.171875 -8.890625 11.929688 -9.539062 11.453125 -10.09375 C 10.984375 -10.65625 10.363281 -10.9375 9.59375 -10.9375 C 8.84375 -10.9375 8.164062 -10.644531 7.5625 -10.0625 C 6.957031 -9.488281 6.65625 -8.847656 6.65625 -8.140625 L 6.65625 0 Z M 1.6875 0 "/></g></g></g><g fill="#17817f" fill-opacity="1"><g transform="translate(50.983559, 24.33444)"><g><path d="M 2.65625 -1.78125 C 1.3125 -3.25 0.640625 -5.050781 0.640625 -7.1875 C 0.640625 -9.320312 1.3125 -11.125 2.65625 -12.59375 C 4.007812 -14.070312 5.722656 -14.8125 7.796875 -14.8125 C 9.703125 -14.8125 11.273438 -14.210938 12.515625 -13.015625 L 12.515625 -24.140625 L 17.484375 -24.140625 L 17.484375 0 L 12.578125 0 L 12.578125 -1.625 L 12.515625 -1.625 C 11.273438 -0.257812 9.703125 0.421875 7.796875 0.421875 C 5.722656 0.421875 4.007812 -0.3125 2.65625 -1.78125 Z M 6.890625 -9.625 C 6.242188 -8.988281 5.921875 -8.175781 5.921875 -7.1875 C 5.921875 -6.195312 6.226562 -5.382812 6.84375 -4.75 C 7.457031 -4.125 8.269531 -3.8125 9.28125 -3.8125 C 10.257812 -3.8125 11.0625 -4.128906 11.6875 -4.765625 C 12.3125 -5.398438 12.625 -6.207031 12.625 -7.1875 C 12.625 -8.175781 12.300781 -8.988281 11.65625 -9.625 C 11.007812 -10.257812 10.21875 -10.578125 9.28125 -10.578125 C 8.332031 -10.578125 7.535156 -10.257812 6.890625 -9.625 Z M 6.890625 -9.625 "/></g></g></g><g fill="#17817f" fill-opacity="1"><g transform="translate(68.013997, 24.33444)"><g><path d="M 2.15625 -22.421875 C 2.738281 -23.003906 3.429688 -23.296875 4.234375 -23.296875 C 5.035156 -23.296875 5.726562 -23.003906 6.3125 -22.421875 C 6.894531 -21.835938 7.1875 -21.144531 7.1875 -20.34375 C 7.1875 -19.539062 6.894531 -18.847656 6.3125 -18.265625 C 5.726562 -17.691406 5.035156 -17.40625 4.234375 -17.40625 C 3.429688 -17.40625 2.738281 -17.691406 2.15625 -18.265625 C 1.582031 -18.847656 1.296875 -19.539062 1.296875 -20.34375 C 1.296875 -21.144531 1.582031 -21.835938 2.15625 -22.421875 Z M 1.6875 -14.390625 L 1.6875 0 L 6.65625 0 L 6.65625 -14.390625 Z M 1.6875 -14.390625 "/></g></g></g><g fill="#17817f" fill-opacity="1"><g transform="translate(74.354434, 24.33444)"><g><path d="M 16.5 -12.609375 C 17.84375 -11.140625 18.515625 -9.335938 18.515625 -7.203125 C 18.515625 -5.078125 17.84375 -3.273438 16.5 -1.796875 C 15.15625 -0.316406 13.441406 0.421875 11.359375 0.421875 C 9.453125 0.421875 7.882812 -0.175781 6.65625 -1.375 L 6.65625 7.296875 L 1.6875 7.296875 L 1.6875 -14.390625 L 6.59375 -14.390625 L 6.59375 -12.765625 L 6.65625 -12.765625 C 7.882812 -14.128906 9.453125 -14.8125 11.359375 -14.8125 C 13.441406 -14.8125 15.15625 -14.078125 16.5 -12.609375 Z M 12.28125 -4.765625 C 12.925781 -5.398438 13.25 -6.210938 13.25 -7.203125 C 13.25 -8.203125 12.9375 -9.015625 12.3125 -9.640625 C 11.695312 -10.265625 10.882812 -10.578125 9.875 -10.578125 C 8.90625 -10.578125 8.101562 -10.257812 7.46875 -9.625 C 6.84375 -8.988281 6.53125 -8.1875 6.53125 -7.21875 C 6.53125 -6.21875 6.851562 -5.398438 7.5 -4.765625 C 8.144531 -4.128906 8.9375 -3.8125 9.875 -3.8125 C 10.832031 -3.8125 11.632812 -4.128906 12.28125 -4.765625 Z M 12.28125 -4.765625 "/></g></g></g><g fill="#17817f" fill-opacity="1"><g transform="translate(91.384872, 24.33444)"><g><path d="M 16.25 -6.515625 L 5.8125 -6.515625 C 5.8125 -5.503906 6.132812 -4.753906 6.78125 -4.265625 C 7.4375 -3.773438 8.148438 -3.53125 8.921875 -3.53125 C 9.722656 -3.53125 10.359375 -3.640625 10.828125 -3.859375 C 11.296875 -4.078125 11.832031 -4.503906 12.4375 -5.140625 L 16.03125 -3.34375 C 14.53125 -0.832031 12.039062 0.421875 8.5625 0.421875 C 6.382812 0.421875 4.519531 -0.320312 2.96875 -1.8125 C 1.414062 -3.300781 0.640625 -5.09375 0.640625 -7.1875 C 0.640625 -9.28125 1.414062 -11.070312 2.96875 -12.5625 C 4.519531 -14.0625 6.382812 -14.8125 8.5625 -14.8125 C 10.84375 -14.8125 12.695312 -14.148438 14.125 -12.828125 C 15.5625 -11.515625 16.28125 -9.632812 16.28125 -7.1875 C 16.28125 -6.84375 16.269531 -6.617188 16.25 -6.515625 Z M 5.953125 -9.265625 L 11.421875 -9.265625 C 11.304688 -10.015625 11.007812 -10.585938 10.53125 -10.984375 C 10.0625 -11.390625 9.453125 -11.59375 8.703125 -11.59375 C 7.878906 -11.59375 7.222656 -11.375 6.734375 -10.9375 C 6.242188 -10.507812 5.984375 -9.953125 5.953125 -9.265625 Z M 5.953125 -9.265625 "/></g></g></g><g fill="#17817f" fill-opacity="1"><g transform="translate(106.170688, 24.33444)"><g><path d="M 2.53125 -14.390625 L 2.53125 -19.75 L 7.5 -19.75 L 7.5 -14.390625 L 10.53125 -14.390625 L 10.53125 -10.609375 L 7.5 -10.609375 L 7.5 -6.03125 C 7.5 -4.707031 7.867188 -4.046875 8.609375 -4.046875 C 8.796875 -4.046875 8.992188 -4.082031 9.203125 -4.15625 C 9.410156 -4.226562 9.570312 -4.300781 9.6875 -4.375 L 9.84375 -4.484375 L 11.078125 -0.484375 C 10.015625 0.117188 8.800781 0.421875 7.4375 0.421875 C 6.5 0.421875 5.691406 0.257812 5.015625 -0.0625 C 4.347656 -0.394531 3.835938 -0.835938 3.484375 -1.390625 C 3.140625 -1.941406 2.894531 -2.519531 2.75 -3.125 C 2.601562 -3.738281 2.53125 -4.390625 2.53125 -5.078125 L 2.53125 -10.609375 L 0.453125 -10.609375 L 0.453125 -14.390625 Z M 2.53125 -14.390625 "/></g></g></g><g clip-path="url(#512a391637)"><g fill="#17817f" fill-opacity="1"><g transform="translate(115.120495, 24.33444)"><g><path d="M 12.59375 -14.390625 L 18.328125 -14.390625 L 7.015625 7.296875 L 1.296875 7.296875 L 6.265625 -2.25 L -0.5625 -14.390625 L 5.15625 -14.390625 L 9.171875 -7.015625 Z M 12.59375 -14.390625 "/></g></g></g></g></g></g></g></svg>